<?xml version="1.0" encoding="utf-8"?>
<!-- Generator: Adobe Illustrator 24.0.0, SVG Export Plug-In . SVG Version: 6.00 Build 0)  -->
<svg version="1.1" xmlns="http://www.w3.org/2000/svg" xmlns:xlink="http://www.w3.org/1999/xlink" x="0px" y="0px"
	 viewBox="0 0 1280 1024" style="enable-background:new 0 0 1280 1024;" xml:space="preserve">
<style type="text/css">
	.st0{fill:#2CA1DB;}
	.st1{fill:#2E73D8;}
	.st2{opacity:0.83;}
	.st3{opacity:0.76;}
	.st4{opacity:0.57;}
	.st5{opacity:0.41;}
	.st6{fill:#2CA1DB;stroke:#2E73D8;stroke-miterlimit:10;}
</style>
<g id="Layer_1">
</g>
<g id="Layer_3">
	<g>
		<g>
			<path class="st0" d="M538.52,571.79c2.9,0,7.53,7.25,11.69,10.16c16.1,11.29,35.15,13.57,53.43,14.54
				c-1.97,17.73-17.13,26.95-30.75,26.24l-5.2,0.04l-13.9-14.33c13.51,13.92,27.02,27.85,40.52,41.77
				c6.97,7.18,13.99,14.44,19.57,23.21c1.85,2.91,3.51,7.17,1.54,9.96c-0.86,1.21-2.2,1.75-3.51,2.02
				c-5.02,1.03-10.17-1.19-14.41-4.57c-4.24-3.38-7.79-7.85-11.55-11.98c-10.33-11.33-22.5-19.96-35.04-27.38
				c-4.08-2.41-2.5,1.68-2.5,1.68c9.38,6.12,19.2,13.74,27.23,22.2c4.47,4.71,8.43,10.06,12.38,15.4
				c6.02,8.14,12.05,16.27,18.07,24.41c1.78,2.41,3.62,4.93,4.36,8.02c0.74,3.1,0.06,6.95-2.28,8.53c-1.08,0.74-2.37,0.9-3.62,0.92
				c-5.97,0.08-11.74-2.9-16.65-6.99s-9.11-9.27-13.43-14.24c-7.55-8.68-15.56-16.79-23.96-24.26
				c-6.36-5.65-13.18-11.06-20.94-12.93c-1.65,1.45-0.56,4.58,0.7,6.52c11.1,17.06,26.58,29.3,38.16,45.9
				c2.16,3.09,4.29,7.11,3.12,10.89c-0.62,2.02-2.11,3.51-3.75,4.36c-5.77,2.99-12.24-1.23-17.46-5.44
				c-13.94-11.24-27.29-23.53-39.95-36.77c-2.2-2.3-4.4-4.65-6.99-6.25c-2.26-1.4-4.79-2.2-7.33-2.31l0.93,2.24
				c10.64,13.07,23.1,23.07,34.74,36.07c1.66,2,2.49,4,2.49,6c-1.66,6-7.48,7-11.63,6c-35.73-16-64.82-40-97.23-68
				c-6.65-5-12.47-9-19.11-13c-0.83-1-1.62-1.81-2.76-2.15c-3.32-1-5.44-2.21-8.85-1.78c-12.75,1.61-21.69,3.64-31.28,3.47
				c0,0-244.88,51.18-245.52-252.52l113.89,54.42c0.64,106.64,148.42,103.75,148.42,103.75c15.3,1.8,30.26,1.8,46.05,4.8
				c14.13,2,26.59,8,40.72,9c16.62,1,32.41,1,49.29,0.71"/>
			<g>
				<path class="st1" d="M538.52,573.29c1.94,0.18,4.06,3.27,5.26,4.57c1.64,1.77,3.26,3.57,5.19,5.03
					c5.11,3.86,11.12,6.7,17.13,8.85c12.02,4.3,24.86,5.57,37.54,6.25c-0.5-0.5-1-1-1.5-1.5c-1.53,12.48-10.83,22.33-23.26,24.42
					c-2.21,0.37-4.4,0.34-6.64,0.33c-0.97,0-1.94,0.01-2.91,0.02c-0.23,0-1.07-0.12-1.29,0.01c-0.63,0.37,0.68,0.07,0.64,0.37
					c0.05-0.39-2.04-2.1-2.3-2.37c-1.47-1.52-2.94-3.03-4.41-4.55c-2.37-2.45-4.75-4.89-7.12-7.34c-0.71,0.71-1.41,1.41-2.12,2.12
					c10.07,10.38,20.15,20.77,30.22,31.15c9.29,9.57,19.31,18.86,27.09,29.75c1.63,2.29,3.43,4.68,4.31,7.38
					c0.48,1.49,0.79,3.17-0.11,4.55c-1.07,1.64-3.28,1.85-5.1,1.81c-6.63-0.13-11.99-5.19-16.23-9.76
					c-4.44-4.79-8.62-9.75-13.47-14.16c-4.52-4.12-9.34-7.91-14.33-11.42c-2.48-1.74-5-3.42-7.56-5.04
					c-2.31-1.46-4.77-3.48-7.39-4.32c-2.66-0.85-4.29,1.54-3.24,3.97c0.67,1.56,2.9,2.46,4.27,3.4c2.78,1.91,5.52,3.9,8.19,5.97
					c5.15,4,10.07,8.3,14.6,13c9.39,9.75,16.95,21.4,24.99,32.26c2.1,2.84,4.24,5.67,6.31,8.53c1.86,2.57,3.82,5.39,3.95,8.67
					c0.13,3.18-1.21,5.75-4.68,5.89c-3.41,0.14-6.89-1.06-9.85-2.66c-6.51-3.49-11.47-9.21-16.23-14.73
					c-4.82-5.59-9.73-11.08-14.92-16.32c-5.1-5.15-10.39-10.18-15.99-14.79c-5.24-4.31-10.94-8.15-17.59-9.87
					c-0.5-0.13-1.11-0.01-1.46,0.39c-3.12,3.54,0.26,8.15,2.41,11.22c3.1,4.43,6.52,8.62,10.08,12.69
					c7.37,8.41,15.34,16.3,22.26,25.1c3.12,3.98,9.8,11.18,6.06,16.47c-3.93,5.56-11.38,1.56-15.52-1.4
					c-9.96-7.14-19.12-15.84-27.99-24.28c-5-4.76-9.88-9.65-14.66-14.64c-4.29-4.47-8.66-8.22-15.09-8.69
					c-0.89-0.07-1.81,1.03-1.45,1.9c1.38,3.34,3.63,5.74,6.06,8.43c3.61,4,7.43,7.82,11.28,11.59c3.89,3.81,7.83,7.58,11.65,11.46
					c1.96,1.99,3.9,4.02,5.79,6.08c2.14,2.34,4.48,5.27,2.26,8.35c-2.38,3.3-6.87,3.37-10.26,1.82c-4.63-2.13-9.19-4.41-13.68-6.82
					c-8.92-4.81-17.54-10.16-25.89-15.89c-17.7-12.14-34.2-25.93-50.47-39.91c-4.08-3.51-8.23-6.79-12.64-9.88
					c-4.31-3.02-8.82-5.71-12.95-8.92c-1.52-1.18-3.72-1.65-5.53-2.21c-2.58-0.79-4.88-0.73-7.54-0.38
					c-4.98,0.66-9.93,1.47-14.91,2.15c-4.57,0.63-9.1,0.98-13.71,1.07c-0.45,0.01-0.84,0.02-1.27,0.07
					c-0.42,0.05-0.84,0.16-1.26,0.24c-2.05,0.37-4.12,0.68-6.19,0.96c-7.54,1.03-16.63,1.7-24.77,1.89
					c-12.31,0.3-24.64-0.3-36.85-1.85c-14.78-1.88-29.4-5.24-43.46-10.19c-15.86-5.59-30.96-13.31-44.64-23.1
					c-15.54-11.12-29.1-24.94-40.17-40.5c-13.57-19.06-23.45-40.52-30.44-62.8c-9.08-28.99-13.44-59.31-15.02-89.59
					c-0.45-8.71-0.67-17.44-0.69-26.16c-0.75,0.43-1.5,0.86-2.26,1.3c12.88,6.15,25.75,12.31,38.63,18.46
					c20.36,9.73,40.73,19.46,61.09,29.19c4.72,2.26,9.44,4.51,14.17,6.77c-0.25-0.43-0.5-0.86-0.74-1.3
					c0.19,22.67,7.53,44.47,23,61.29c13.56,14.75,31.63,24.61,50.34,31.25c16.59,5.89,34.01,9.39,51.49,11.29
					c8.35,0.9,16.66,1,25.03,1.42c3.13,0.16,6.28,0.66,9.41,0.92c5.28,0.44,10.56,0.78,15.84,1.22c10.86,0.91,21.76,2.32,32.31,5.11
					c9.68,2.56,19.22,5.83,29.28,6.55c10.87,0.78,21.81,0.89,32.7,0.88c5.53-0.01,11.06-0.07,16.59-0.17c1.93-0.03,1.93-3.03,0-3
					c-10.96,0.18-21.92,0.26-32.88-0.02c-10.6-0.27-20.97-0.69-31.28-3.37c-9.78-2.54-19.31-5.32-29.31-6.94
					c-10.4-1.69-20.91-2.27-31.4-3.11c-5.18-0.41-10.23-0.99-15.41-1.1c-4.89-0.1-9.79-0.39-14.66-0.8
					c-16.24-1.37-32.42-4.2-48.04-8.88c-18.67-5.6-37-14.04-51.61-27.18c-16.14-14.51-25.88-34.19-27.92-55.79
					c-0.3-3.18-0.45-6.38-0.47-9.58c0-0.5-0.27-1.07-0.74-1.3c-12.88-6.15-25.75-12.31-38.63-18.46
					c-20.36-9.73-40.73-19.46-61.09-29.19c-4.72-2.26-9.44-4.51-14.17-6.77c-1-0.48-2.26,0.09-2.26,1.3
					c0.09,32.82,2.9,65.85,10.63,97.81c5.89,24.34,14.75,48.14,27.68,69.65c10.44,17.36,23.55,33.14,39.11,46.14
					c13.53,11.3,28.73,20.44,44.97,27.28c14.45,6.09,29.62,10.36,45.07,12.99c13.11,2.24,26.4,3.35,39.7,3.4
					c9.48,0.04,18.97-0.44,28.38-1.53c3.93-0.45,7.91-1.47,11.85-1.77c2.66-0.2,5.38-0.06,8.06-0.31c4.73-0.44,9.42-1.19,14.12-1.89
					c2.89-0.43,5.82-0.98,8.73-1.23c2.65-0.22,5.12,0.47,7.57,1.44c1.51,0.6,2.1,1.31,3.28,2.28c0.89,0.73,2.04,1.24,3.02,1.85
					c2.45,1.54,4.88,3.13,7.26,4.77c9.34,6.43,17.67,14.08,26.35,21.34c8.08,6.76,16.27,13.38,24.68,19.71
					c16.72,12.58,34.41,23.92,53.47,32.62c3.01,1.38,6.31,1.71,9.47,0.48c2.96-1.15,5.88-4.11,5.96-7.45
					c0.12-4.93-4.96-9-8.03-12.19c-3.8-3.94-7.73-7.75-11.65-11.57c-3.86-3.76-7.71-7.54-11.38-11.48c-2.62-2.81-5.65-5.55-7.12-9.1
					c-0.48,0.63-0.96,1.27-1.45,1.9c6.87,0.51,11.1,5.92,15.56,10.52c4.49,4.62,9.07,9.14,13.76,13.56
					c4.54,4.27,9.17,8.44,13.9,12.51c4.43,3.81,8.87,7.81,13.7,11.12c4.04,2.77,9.17,5.22,14.12,3.49c4.57-1.6,7-6.05,6.03-10.77
					c-1.07-5.17-5.08-9.65-8.28-13.67c-3.53-4.44-7.33-8.66-11.17-12.83c-4.4-4.79-8.86-9.52-13.06-14.5
					c-2.12-2.52-4.18-5.1-6.11-7.77c-1.19-1.64-5.81-6.81-3.88-8.99c-0.49,0.13-0.97,0.26-1.46,0.39
					c6.72,1.73,12.39,5.8,17.61,10.23c5.32,4.52,10.39,9.35,15.28,14.32c4.96,5.04,9.66,10.31,14.27,15.66
					c4.12,4.77,8.35,9.56,13.56,13.18c4.55,3.16,10.85,6.02,16.55,4.91c5.1-0.99,6.48-6.72,5.44-11.18
					c-0.66-2.87-2.32-5.38-4.03-7.72c-2.27-3.13-4.6-6.21-6.9-9.32c-4.33-5.86-8.66-11.72-13-17.57
					c-3.91-5.26-7.9-10.46-12.49-15.15c-4.65-4.75-9.72-9.1-14.99-13.15c-2.55-1.96-5.14-3.84-7.79-5.66
					c-0.68-0.47-1.39-1.07-2.12-1.44c0.45,0.22-1.31-0.85-0.73-0.07c-0.05-0.07-0.09-0.44-0.14-0.45c-0.03-0.11-0.06-0.23-0.08-0.35
					c0.05-0.52-0.17-0.42-0.67,0.29c0.12,0.32,3.06,1.67,3.41,1.88c1.47,0.89,2.94,1.8,4.39,2.73c2.8,1.79,5.55,3.64,8.25,5.58
					c5.49,3.95,10.71,8.26,15.53,13c4.84,4.75,8.92,10.26,13.94,14.82c4.29,3.9,9.82,7.33,15.85,6.9c5.16-0.36,8.36-3.83,7.2-9.07
					c-0.69-3.13-2.57-5.83-4.37-8.42c-2.13-3.05-4.46-5.97-6.89-8.8c-5.08-5.9-10.62-11.41-16.04-16.99
					c-11.79-12.15-23.58-24.31-35.37-36.46c-1.35-1.39-3.47,0.73-2.12,2.12c2.32,2.39,4.63,4.78,6.95,7.16
					c1.61,1.66,3.23,3.33,4.84,4.99c0.66,0.68,1.33,1.63,2.11,2.17c1.41,0.98,3.98,0.4,5.62,0.41c2.51,0.01,4.95-0.02,7.43-0.44
					c5.8-0.98,11.3-3.66,15.67-7.59c5.71-5.14,8.87-12.17,9.79-19.72c0.1-0.84-0.77-1.46-1.5-1.5c-12.98-0.7-26.09-2.05-38.31-6.73
					c-5.86-2.24-12.23-5.24-16.74-9.7c-2.74-2.71-5.85-7.89-10.07-8.28C536.6,570.11,536.61,573.11,538.52,573.29L538.52,573.29z"/>
			</g>
		</g>
		<g>
			<path class="st0" d="M516.19,570.15c6.74,0,15.83,0.66,22.33,1.64"/>
			<g>
				<path class="st1" d="M516.19,571.65c7.31,0.01,14.69,0.51,21.93,1.58c0.81,0.12,1.6-0.2,1.85-1.05c0.2-0.71-0.25-1.73-1.05-1.85
					c-7.5-1.11-15.14-1.68-22.73-1.69C514.26,568.65,514.26,571.65,516.19,571.65L516.19,571.65z"/>
			</g>
		</g>
	</g>
	<g>
		<path d="M122.53,387.8"/>
		<g>
			<path class="st0" d="M122.53,393.8c7.72,0,7.73-12,0-12C114.81,381.8,114.8,393.8,122.53,393.8L122.53,393.8z"/>
		</g>
	</g>
	<g>
		<path d="M139.94,395.05"/>
		<g>
			<path class="st0" d="M139.94,401.05c7.72,0,7.73-12,0-12C132.22,389.05,132.21,401.05,139.94,401.05L139.94,401.05z"/>
		</g>
	</g>
	<g>
		<path d="M154.36,403.25c0,0.14,0,0.29,0,0.43"/>
		<g>
			<path class="st0" d="M148.36,403.25c0,0.14,0,0.29,0,0.43c-0.03,0.83,0.14,1.6,0.52,2.31c0.24,0.74,0.66,1.39,1.24,1.93
				c0.54,0.59,1.19,1,1.93,1.24c0.72,0.38,1.49,0.55,2.31,0.52c0.53-0.07,1.06-0.14,1.6-0.21c1.02-0.29,1.9-0.8,2.65-1.54
				c0.31-0.4,0.63-0.81,0.94-1.21c0.54-0.94,0.82-1.95,0.82-3.03c0-0.14,0-0.29,0-0.43c0.03-0.83-0.14-1.6-0.52-2.31
				c-0.24-0.74-0.66-1.39-1.24-1.93c-0.54-0.59-1.19-1-1.93-1.24c-0.72-0.38-1.49-0.55-2.31-0.52c-0.53,0.07-1.06,0.14-1.6,0.21
				c-1.02,0.29-1.9,0.8-2.65,1.54c-0.31,0.4-0.63,0.81-0.94,1.21C148.63,401.16,148.36,402.17,148.36,403.25L148.36,403.25z"/>
		</g>
	</g>
	<g>
		<path d="M169.25,410.15c0.16-0.14,0.32-0.29,0.48-0.43"/>
		<g>
			<path class="st0" d="M173.49,414.39c0.16-0.14,0.32-0.29,0.48-0.43c0.59-0.54,1-1.19,1.24-1.93c0.38-0.72,0.55-1.49,0.52-2.31
				c0.03-0.83-0.14-1.6-0.52-2.31c-0.24-0.74-0.66-1.39-1.24-1.93c-0.4-0.31-0.81-0.63-1.21-0.94c-0.94-0.54-1.95-0.82-3.03-0.82
				c-0.53,0.07-1.06,0.14-1.6,0.21c-1.02,0.29-1.9,0.8-2.65,1.54c-0.16,0.14-0.32,0.29-0.48,0.43c-0.59,0.54-1,1.19-1.24,1.93
				c-0.38,0.72-0.55,1.49-0.52,2.31c-0.03,0.83,0.14,1.6,0.52,2.31c0.24,0.74,0.66,1.39,1.24,1.93c0.4,0.31,0.81,0.63,1.21,0.94
				c0.94,0.54,1.95,0.82,3.03,0.82c0.53-0.07,1.06-0.14,1.6-0.21C171.86,415.65,172.74,415.13,173.49,414.39L173.49,414.39z"/>
		</g>
	</g>
	<g>
		<path d="M185.02,416.66c-0.17-0.28-0.34-0.57-0.51-0.85"/>
		<g>
			<path class="st0" d="M190.2,413.63c-0.17-0.28-0.34-0.57-0.51-0.85c-0.38-0.7-0.89-1.26-1.55-1.68
				c-0.58-0.53-1.26-0.89-2.04-1.07c-0.8-0.25-1.6-0.29-2.39-0.11c-0.8,0.04-1.54,0.27-2.23,0.71c-0.4,0.31-0.81,0.63-1.21,0.94
				c-0.74,0.75-1.26,1.63-1.54,2.65c-0.07,0.53-0.14,1.06-0.21,1.6c0,1.08,0.28,2.09,0.82,3.03c0.17,0.28,0.34,0.57,0.51,0.85
				c0.38,0.7,0.89,1.26,1.55,1.68c0.58,0.53,1.26,0.89,2.04,1.07c0.8,0.25,1.6,0.29,2.39,0.11c0.8-0.04,1.54-0.27,2.23-0.71
				c0.4-0.31,0.81-0.63,1.21-0.94c0.74-0.75,1.26-1.63,1.54-2.65c0.07-0.53,0.14-1.06,0.21-1.6
				C191.01,415.57,190.74,414.56,190.2,413.63L190.2,413.63z"/>
		</g>
	</g>
	<g>
		<path d="M200.47,423.95"/>
		<g>
			<path class="st0" d="M200.47,429.95c7.72,0,7.73-12,0-12C192.75,417.95,192.74,429.95,200.47,429.95L200.47,429.95z"/>
		</g>
	</g>
	<g>
		<path d="M214.4,431.28"/>
		<g>
			<path class="st0" d="M214.4,437.28c7.72,0,7.73-12,0-12C206.68,425.28,206.67,437.28,214.4,437.28L214.4,437.28z"/>
		</g>
	</g>
	<g>
		<path d="M230.24,437.81c0.39,0.07,0.39,0.69,0.01,0.77"/>
		<g>
			<path class="st0" d="M228.64,443.6c0.02,0,0.04,0.01,0.06,0.02c-0.48-0.2-0.96-0.4-1.43-0.6c0.03,0.01,0.05,0.02,0.08,0.04
				c-0.4-0.31-0.81-0.63-1.21-0.94c0.02,0.02,0.04,0.04,0.06,0.06c-0.31-0.4-0.63-0.81-0.94-1.21c0.02,0.03,0.04,0.06,0.06,0.1
				c-0.2-0.48-0.4-0.96-0.6-1.43c0.01,0.04,0.02,0.07,0.03,0.11c-0.07-0.53-0.14-1.06-0.21-1.6c0,0.04,0,0.08,0,0.12
				c0.07-0.53,0.14-1.06,0.21-1.6c-0.01,0.04-0.01,0.07-0.03,0.11c0.2-0.48,0.4-0.96,0.6-1.43c-0.02,0.04-0.03,0.07-0.06,0.1
				c0.31-0.4,0.63-0.81,0.94-1.21c-0.02,0.02-0.04,0.04-0.06,0.06c0.4-0.31,0.81-0.63,1.21-0.94c-0.03,0.02-0.05,0.03-0.08,0.04
				c0.48-0.2,0.96-0.4,1.43-0.6c-0.02,0.01-0.04,0.01-0.06,0.02c-0.78,0.19-1.46,0.54-2.04,1.07c-0.65,0.42-1.17,0.98-1.55,1.68
				c-0.44,0.69-0.68,1.43-0.71,2.23c-0.18,0.8-0.14,1.6,0.11,2.39c0.2,0.48,0.4,0.96,0.6,1.43c0.53,0.9,1.25,1.62,2.15,2.15
				c0.48,0.2,0.96,0.4,1.43,0.6c1.06,0.29,2.13,0.29,3.19,0c0.55-0.14,1.08-0.39,1.57-0.67c0.4-0.31,0.81-0.63,1.21-0.94
				c0.02-0.01,0.03-0.02,0.04-0.04c0.38-0.36,0.69-0.8,0.97-1.25c0.59-0.97,0.9-2.15,0.9-3.28c0-0.58-0.09-1.16-0.23-1.72
				c0-0.01-0.01-0.03-0.01-0.04c-0.2-0.48-0.4-0.96-0.6-1.43c-0.01-0.03-0.03-0.05-0.04-0.07c-0.16-0.21-0.32-0.42-0.49-0.63
				c-0.15-0.22-0.31-0.43-0.49-0.63c-0.01-0.01-0.02-0.02-0.03-0.03c-0.41-0.32-0.81-0.64-1.23-0.95c-0.03-0.01-0.05-0.03-0.08-0.04
				c-0.48-0.2-0.96-0.4-1.43-0.6c-0.02-0.01-0.04-0.01-0.06-0.02c-0.8-0.25-1.6-0.29-2.39-0.11c-0.8,0.04-1.54,0.27-2.23,0.71
				c-0.7,0.38-1.26,0.89-1.68,1.55c-0.53,0.58-0.89,1.26-1.07,2.04c-0.07,0.53-0.14,1.06-0.21,1.6c0,1.08,0.28,2.09,0.82,3.03
				c0.31,0.4,0.63,0.81,0.94,1.21C226.74,442.8,227.62,443.31,228.64,443.6L228.64,443.6z"/>
		</g>
	</g>
	<g>
		<path d="M139.36,379.1"/>
		<g>
			<path class="st0" d="M139.36,385.1c7.72,0,7.73-12,0-12C131.64,373.1,131.63,385.1,139.36,385.1L139.36,385.1z"/>
		</g>
	</g>
	<g>
		<path d="M155.01,388.27"/>
		<g>
			<path class="st0" d="M155.01,394.27c7.72,0,7.73-12,0-12C147.29,382.27,147.28,394.27,155.01,394.27L155.01,394.27z"/>
		</g>
	</g>
	<g>
		<path d="M170.36,394.19"/>
		<g>
			<path class="st0" d="M170.36,400.19c7.72,0,7.73-12,0-12C162.64,388.19,162.63,400.19,170.36,400.19L170.36,400.19z"/>
		</g>
	</g>
	<g>
		<path d="M185.6,401.52c-0.16-0.14-0.32-0.29-0.48-0.43"/>
		<g>
			<path class="st0" d="M189.84,397.28c-0.16-0.14-0.32-0.29-0.48-0.43c-0.54-0.59-1.19-1-1.93-1.24c-0.72-0.38-1.49-0.55-2.31-0.52
				c-0.83-0.03-1.6,0.14-2.31,0.52c-0.74,0.24-1.39,0.66-1.93,1.24c-0.31,0.4-0.63,0.81-0.94,1.21c-0.54,0.94-0.82,1.95-0.82,3.03
				c0.07,0.53,0.14,1.06,0.21,1.6c0.29,1.02,0.8,1.9,1.54,2.65c0.16,0.14,0.32,0.29,0.48,0.43c0.54,0.59,1.19,1,1.93,1.24
				c0.72,0.38,1.49,0.55,2.31,0.52c0.83,0.03,1.6-0.14,2.31-0.52c0.74-0.24,1.39-0.66,1.93-1.24c0.31-0.4,0.63-0.81,0.94-1.21
				c0.54-0.94,0.82-1.95,0.82-3.03c-0.07-0.53-0.14-1.06-0.21-1.6C191.1,398.91,190.59,398.03,189.84,397.28L189.84,397.28z"/>
		</g>
	</g>
	<g>
		<path d="M200.97,408.85c0.16,0.14,0.32,0.29,0.48,0.43"/>
		<g>
			<path class="st0" d="M196.73,413.1c0.16,0.14,0.32,0.29,0.48,0.43c0.54,0.59,1.19,1,1.93,1.24c0.72,0.38,1.49,0.55,2.31,0.52
				c0.83,0.03,1.6-0.14,2.31-0.52c0.74-0.24,1.39-0.66,1.93-1.24c0.31-0.4,0.63-0.81,0.94-1.21c0.54-0.94,0.82-1.95,0.82-3.03
				c-0.07-0.53-0.14-1.06-0.21-1.6c-0.29-1.02-0.8-1.9-1.54-2.65c-0.16-0.14-0.32-0.29-0.48-0.43c-0.54-0.59-1.19-1-1.93-1.24
				c-0.72-0.38-1.49-0.55-2.31-0.52c-0.83-0.03-1.6,0.14-2.31,0.52c-0.74,0.24-1.39,0.66-1.93,1.24c-0.31,0.4-0.63,0.81-0.94,1.21
				c-0.54,0.94-0.82,1.95-0.82,3.03c0.07,0.53,0.14,1.06,0.21,1.6C195.47,411.47,195.98,412.35,196.73,413.1L196.73,413.1z"/>
		</g>
	</g>
	<g>
		<path d="M215.05,416.19"/>
		<g>
			<path class="st0" d="M215.05,422.19c7.72,0,7.73-12,0-12C207.33,410.19,207.32,422.19,215.05,422.19L215.05,422.19z"/>
		</g>
	</g>
	<g>
		<path d="M230.73,423.52"/>
		<g>
			<path class="st0" d="M230.73,429.52c7.72,0,7.73-12,0-12C223.01,417.52,223,429.52,230.73,429.52L230.73,429.52z"/>
		</g>
	</g>
	<g class="st2">
		<path d="M140.67,362.06c0.16,0.15,0.31,0.29,0.47,0.44"/>
		<g>
			<path class="st0" d="M136.43,366.3c0.16,0.15,0.31,0.29,0.47,0.44c0.54,0.59,1.19,1,1.93,1.24c0.72,0.38,1.49,0.55,2.31,0.52
				c0.83,0.03,1.6-0.14,2.31-0.52c0.74-0.24,1.39-0.66,1.93-1.24c0.31-0.4,0.63-0.81,0.94-1.21c0.54-0.94,0.82-1.95,0.82-3.03
				c-0.07-0.53-0.14-1.06-0.21-1.6c-0.29-1.02-0.8-1.9-1.54-2.65c-0.16-0.15-0.31-0.29-0.47-0.44c-0.54-0.59-1.19-1-1.93-1.24
				c-0.72-0.38-1.49-0.55-2.31-0.52c-0.83-0.03-1.6,0.14-2.31,0.52c-0.74,0.24-1.39,0.66-1.93,1.24c-0.31,0.4-0.63,0.81-0.94,1.21
				c-0.54,0.94-0.82,1.95-0.82,3.03c0.07,0.53,0.14,1.06,0.21,1.6C135.17,364.67,135.68,365.56,136.43,366.3L136.43,366.3z"/>
		</g>
	</g>
	<g class="st2">
		<path d="M170.36,378.24"/>
		<g>
			<path class="st0" d="M170.36,384.24c7.72,0,7.73-12,0-12C162.64,372.24,162.63,384.24,170.36,384.24L170.36,384.24z"/>
		</g>
	</g>
	<g class="st2">
		<path d="M185.29,386.43c0-0.14,0-0.29,0-0.43"/>
		<g>
			<path class="st0" d="M191.29,386.43c0-0.14,0-0.29,0-0.43c0.03-0.83-0.14-1.6-0.52-2.31c-0.24-0.74-0.66-1.39-1.24-1.93
				c-0.54-0.59-1.19-1-1.93-1.24c-0.72-0.38-1.49-0.55-2.31-0.52c-0.53,0.07-1.06,0.14-1.6,0.21c-1.02,0.29-1.9,0.8-2.65,1.54
				c-0.31,0.4-0.63,0.81-0.94,1.21c-0.54,0.94-0.82,1.95-0.82,3.03c0,0.14,0,0.29,0,0.43c-0.03,0.83,0.14,1.6,0.52,2.31
				c0.24,0.74,0.66,1.39,1.24,1.93c0.54,0.59,1.19,1,1.93,1.24c0.72,0.38,1.49,0.55,2.31,0.52c0.53-0.07,1.06-0.14,1.6-0.21
				c1.02-0.29,1.9-0.8,2.65-1.54c0.31-0.4,0.63-0.81,0.94-1.21C191.02,388.52,191.29,387.51,191.29,386.43L191.29,386.43z"/>
		</g>
	</g>
	<g class="st2">
		<path d="M200.82,394.62c0-0.14,0-0.29,0-0.43"/>
		<g>
			<path class="st0" d="M206.82,394.62c0-0.14,0-0.29,0-0.43c0.03-0.83-0.14-1.6-0.52-2.31c-0.24-0.74-0.66-1.39-1.24-1.93
				c-0.54-0.59-1.19-1-1.93-1.24c-0.72-0.38-1.49-0.55-2.31-0.52c-0.53,0.07-1.06,0.14-1.6,0.21c-1.02,0.29-1.9,0.8-2.65,1.54
				c-0.31,0.4-0.63,0.81-0.94,1.21c-0.54,0.94-0.82,1.95-0.82,3.03c0,0.14,0,0.29,0,0.43c-0.03,0.83,0.14,1.6,0.52,2.31
				c0.24,0.74,0.66,1.39,1.24,1.93c0.54,0.59,1.19,1,1.93,1.24c0.72,0.38,1.49,0.55,2.31,0.52c0.53-0.07,1.06-0.14,1.6-0.21
				c1.02-0.29,1.9-0.8,2.65-1.54c0.31-0.4,0.63-0.81,0.94-1.21C206.54,396.72,206.81,395.71,206.82,394.62L206.82,394.62z"/>
		</g>
	</g>
	<g class="st2">
		<path d="M216.41,402.11c0.04,0.21-0.45,0.19-0.39-0.01"/>
		<g>
			<path class="st0" d="M210.62,403.7c0,0,0,0.01,0,0.01c-0.07-0.53-0.14-1.06-0.21-1.6c0,0.01,0,0.01,0,0.02
				c0.07-0.53,0.14-1.06,0.21-1.6c0,0.01,0,0.02-0.01,0.03c0.2-0.48,0.4-0.96,0.6-1.43c0,0.01-0.01,0.02-0.02,0.03
				c0.31-0.4,0.63-0.81,0.94-1.21c-0.01,0.01-0.01,0.01-0.02,0.02c0.4-0.31,0.81-0.63,1.21-0.94c-0.01,0.01-0.02,0.02-0.04,0.02
				c0.48-0.2,0.96-0.4,1.43-0.6c-0.02,0.01-0.05,0.01-0.07,0.02c0.53-0.07,1.06-0.14,1.6-0.21c-0.03,0-0.06,0-0.09,0
				c0.53,0.07,1.06,0.14,1.6,0.21c-0.02,0-0.05-0.01-0.07-0.02c0.48,0.2,0.96,0.4,1.43,0.6c-0.01-0.01-0.03-0.01-0.04-0.02
				c0.4,0.31,0.81,0.63,1.21,0.94c-0.01-0.01-0.02-0.02-0.03-0.03c0.31,0.4,0.63,0.81,0.94,1.21c0-0.01-0.01-0.01-0.01-0.02
				c0.2,0.48,0.4,0.96,0.6,1.43c0-0.01-0.01-0.02-0.01-0.03c0.07,0.53,0.14,1.06,0.21,1.6c0-0.01,0-0.01,0-0.02
				c-0.07,0.53-0.14,1.06-0.21,1.6c0-0.01,0-0.02,0-0.02c0.25-0.8,0.29-1.6,0.11-2.39c-0.04-0.8-0.27-1.54-0.71-2.23
				c-0.38-0.7-0.89-1.26-1.55-1.68c-0.58-0.53-1.26-0.89-2.04-1.07c-0.53-0.07-1.06-0.14-1.6-0.21c-1.08,0-2.09,0.28-3.03,0.82
				c-0.4,0.31-0.81,0.63-1.21,0.94c-0.74,0.75-1.26,1.63-1.54,2.65c0,0.01,0,0.02,0,0.02c-0.01,0.04-0.21,1.57-0.21,1.61
				c0,0.03,0.21,1.58,0.21,1.61c0,0.01,0,0.01,0,0.02c0.01,0.02,0.59,1.42,0.61,1.44c0.14,0.23,0.07,0.1,0.48,0.62
				c0.37,0.48,0.3,0.43,0.49,0.63c0.01,0.01,1.21,0.94,1.22,0.94c0.01,0,0.01,0.01,0.02,0.01c0,0,0.01,0,0.01,0
				c0.24,0.11,0.48,0.21,0.72,0.3c0.24,0.11,0.48,0.21,0.72,0.3c0,0,0.01,0,0.01,0c0.02,0,0.03,0.01,0.05,0.01
				c0.05,0.01,1.56,0.21,1.61,0.22c0.01,0,0.02,0,0.03,0c0.02,0,0.03,0,0.05,0c0.1-0.01,1.52-0.2,1.61-0.22c0.01,0,0.02,0,0.02,0
				c0.01,0,0.02,0,0.02-0.01c0.05-0.01,1.4-0.58,1.44-0.61c0.01-0.01,0.03-0.01,0.04-0.02c0.02-0.01,1.21-0.93,1.22-0.94
				c0,0,0.01-0.01,0.01-0.01c0.04-0.04,0.92-1.19,0.95-1.23c0.13-0.21,0.58-1.37,0.31-0.73c0.41-0.97,0.28-0.49,0.42-1.54
				c0.05-0.34,0.11-0.54,0.11-0.81c0-0.09-0.2-1.53-0.22-1.61c-0.19-0.78-0.54-1.46-1.07-2.04c-0.42-0.65-0.98-1.17-1.68-1.55
				c-0.69-0.44-1.43-0.68-2.23-0.71c-0.8-0.18-1.6-0.14-2.39,0.11c-0.48,0.2-0.96,0.4-1.43,0.6c-0.9,0.53-1.62,1.25-2.15,2.15
				c-0.2,0.48-0.4,0.96-0.6,1.43C210.34,401.57,210.34,402.64,210.62,403.7L210.62,403.7z"/>
		</g>
	</g>
	<g class="st2">
		<path d="M230.43,408.42c0,0.14,0,0.29,0,0.43"/>
		<g>
			<path class="st0" d="M224.43,408.42c0,0.14,0,0.29,0,0.43c-0.03,0.83,0.14,1.6,0.52,2.31c0.24,0.74,0.66,1.39,1.24,1.93
				c0.54,0.59,1.19,1,1.93,1.24c0.72,0.38,1.49,0.55,2.31,0.52c0.53-0.07,1.06-0.14,1.6-0.21c1.02-0.29,1.9-0.8,2.65-1.54
				c0.31-0.4,0.63-0.81,0.94-1.21c0.54-0.94,0.82-1.95,0.82-3.03c0-0.14,0-0.29,0-0.43c0.03-0.83-0.14-1.6-0.52-2.31
				c-0.24-0.74-0.66-1.39-1.24-1.93c-0.54-0.59-1.19-1-1.93-1.24c-0.72-0.38-1.49-0.55-2.31-0.52c-0.53,0.07-1.06,0.14-1.6,0.21
				c-1.02,0.29-1.9,0.8-2.65,1.54c-0.31,0.4-0.63,0.81-0.94,1.21C224.7,406.33,224.43,407.34,224.43,408.42L224.43,408.42z"/>
		</g>
	</g>
	<g class="st3">
		<path d="M122.47,337.27"/>
		<g>
			<path class="st0" d="M122.47,343.27c7.72,0,7.73-12,0-12C114.75,331.27,114.74,343.27,122.47,343.27L122.47,343.27z"/>
		</g>
	</g>
	<g class="st3">
		<path d="M140.64,345.39c-0.49-0.23-0.21-1.06,0.33-1.01c0.55,0.05,0.63,0.92,0.1,1.05"/>
		<g>
			<path class="st0" d="M143.67,340.21c-0.03-0.01-0.05-0.03-0.07-0.04c0.4,0.31,0.81,0.63,1.21,0.94
				c-0.03-0.03-0.06-0.05-0.09-0.08c0.31,0.4,0.63,0.81,0.94,1.21c-0.02-0.03-0.04-0.06-0.06-0.1c0.2,0.48,0.4,0.96,0.6,1.43
				c-0.01-0.04-0.02-0.07-0.03-0.11c0.07,0.53,0.14,1.06,0.21,1.6c-0.01-0.05-0.01-0.1,0-0.16c-0.07,0.53-0.14,1.06-0.21,1.6
				c0.01-0.05,0.02-0.1,0.04-0.16c-0.2,0.48-0.4,0.96-0.6,1.43c0.02-0.05,0.05-0.1,0.08-0.14c-0.31,0.4-0.63,0.81-0.94,1.21
				c0.03-0.04,0.07-0.08,0.11-0.12c-0.4,0.31-0.81,0.63-1.21,0.94c0.03-0.02,0.07-0.04,0.1-0.06c-0.48,0.2-0.96,0.4-1.43,0.6
				c0.04-0.02,0.08-0.03,0.12-0.04c-0.53,0.07-1.06,0.14-1.6,0.21c0.05-0.01,0.09-0.01,0.13,0c-0.53-0.07-1.06-0.14-1.6-0.21
				c0.06,0.01,0.11,0.02,0.16,0.04c-0.48-0.2-0.96-0.4-1.43-0.6c0.04,0.02,0.07,0.04,0.1,0.06c-0.4-0.31-0.81-0.63-1.21-0.94
				c0.03,0.03,0.05,0.05,0.08,0.08c-0.31-0.4-0.63-0.81-0.94-1.21c0.03,0.04,0.05,0.09,0.07,0.13c-0.2-0.48-0.4-0.96-0.6-1.43
				c0.02,0.05,0.03,0.1,0.04,0.15c-0.07-0.53-0.14-1.06-0.21-1.6c0,0.05,0,0.1,0,0.15c0.07-0.53,0.14-1.06,0.21-1.6
				c-0.01,0.05-0.02,0.1-0.04,0.15c0.2-0.48,0.4-0.96,0.6-1.43c-0.02,0.04-0.03,0.07-0.06,0.1c0.31-0.4,0.63-0.81,0.94-1.21
				c-0.02,0.03-0.05,0.06-0.08,0.08c0.4-0.31,0.81-0.63,1.21-0.94c-0.03,0.02-0.06,0.04-0.1,0.06c0.48-0.2,0.96-0.4,1.43-0.6
				c-0.03,0.01-0.05,0.02-0.08,0.03c-0.78,0.19-1.46,0.54-2.04,1.07c-0.65,0.42-1.17,0.98-1.55,1.68c-0.44,0.69-0.68,1.43-0.71,2.23
				c-0.18,0.8-0.14,1.6,0.11,2.39c0.2,0.48,0.4,0.96,0.6,1.43c0.53,0.9,1.25,1.62,2.15,2.15c0.48,0.2,0.96,0.4,1.43,0.6
				c1.06,0.29,2.13,0.29,3.19,0c0.03-0.01,0.05-0.02,0.08-0.03c0.48-0.2,0.96-0.4,1.43-0.6c0.03-0.02,0.07-0.04,0.1-0.06
				c-0.56,0.33,0.94-0.63,1.27-0.99c0.17-0.21,0.33-0.42,0.49-0.64c0.18-0.2,0.34-0.41,0.49-0.64c0.59-0.92,0.92-2.3,0.89-3.38
				c-0.03-1.29-0.14-1.5-0.56-2.48c0,0.01-0.2-0.56-0.33-0.79c-0.01-0.02-0.03-0.04-0.04-0.06c-0.31-0.4-0.63-0.81-0.94-1.21
				c-0.39-0.42-0.85-0.8-1.36-1.07c-0.24-0.13-0.49-0.23-0.75-0.32c-0.25-0.11-0.5-0.21-0.75-0.32c-0.04-0.01-0.08-0.02-0.12-0.03
				c-0.53-0.07-1.06-0.14-1.6-0.21c-0.03,0-0.06,0-0.09,0c-0.56,0.01-1.14,0.06-1.68,0.23c-0.27,0.08-0.58,0.24-0.79,0.33
				c-0.38,0.16-0.54,0.2-0.8,0.35c-0.49,0.29-0.96,0.64-1.34,1.07c0.48-0.54-0.75,0.86-0.98,1.28c-0.01,0.02-0.02,0.05-0.03,0.07
				c-0.2,0.48-0.4,0.96-0.6,1.43c-0.01,0.04-0.02,0.08-0.03,0.12c-0.05,0.28-0.08,0.56-0.11,0.84c-0.05,0.28-0.08,0.56-0.11,0.84
				c0.01,0.6,0.08,1.21,0.24,1.79c0.28,1.01,0.86,2.05,1.61,2.78c0.41,0.4,0.86,0.8,1.38,1.06c0.69,0.44,1.43,0.68,2.23,0.71
				c0.8,0.18,1.6,0.14,2.39-0.11c0.78-0.19,1.46-0.54,2.04-1.07c0.65-0.42,1.17-0.98,1.55-1.68c0.2-0.48,0.4-0.96,0.6-1.43
				c0.29-1.06,0.29-2.13,0-3.19c-0.2-0.48-0.4-0.96-0.6-1.43C145.29,341.46,144.57,340.74,143.67,340.21L143.67,340.21z"/>
		</g>
	</g>
	<g class="st3">
		<path d="M155.82,354.52"/>
		<g>
			<path class="st0" d="M155.82,360.52c7.72,0,7.73-12,0-12C148.1,348.52,148.08,360.52,155.82,360.52L155.82,360.52z"/>
		</g>
	</g>
	<g class="st3">
		<path d="M171.49,362.5"/>
		<g>
			<path class="st0" d="M171.49,368.5c7.72,0,7.73-12,0-12C163.77,356.5,163.76,368.5,171.49,368.5L171.49,368.5z"/>
		</g>
	</g>
	<g class="st3">
		<path d="M186.1,372.2c0.16,0,0.32,0,0.48,0"/>
		<g>
			<path class="st0" d="M186.1,378.2c0.16,0,0.32,0,0.48,0c0.83,0.03,1.6-0.14,2.31-0.52c0.74-0.24,1.39-0.66,1.93-1.24
				c0.59-0.54,1-1.19,1.24-1.93c0.38-0.72,0.55-1.49,0.52-2.31c-0.07-0.53-0.14-1.06-0.21-1.6c-0.29-1.02-0.8-1.9-1.54-2.65
				c-0.4-0.31-0.81-0.63-1.21-0.94c-0.94-0.54-1.95-0.82-3.03-0.82c-0.16,0-0.32,0-0.48,0c-0.83-0.03-1.6,0.14-2.31,0.52
				c-0.74,0.24-1.39,0.66-1.93,1.24c-0.59,0.54-1,1.19-1.24,1.93c-0.38,0.72-0.55,1.49-0.52,2.31c0.07,0.53,0.14,1.06,0.21,1.6
				c0.29,1.02,0.8,1.9,1.54,2.65c0.4,0.31,0.81,0.63,1.21,0.94C184.01,377.92,185.02,378.2,186.1,378.2L186.1,378.2z"/>
		</g>
	</g>
	<g class="st3">
		<path d="M200.99,380.39"/>
		<g>
			<path class="st0" d="M200.99,386.39c7.72,0,7.73-12,0-12C193.27,374.39,193.26,386.39,200.99,386.39L200.99,386.39z"/>
		</g>
	</g>
	<g class="st3">
		<path d="M216.36,386.86c-0.39,0.08-0.62,0.53-0.44,0.85"/>
		<g>
			<path class="st0" d="M214.77,381.07c-0.03,0.01-0.06,0.02-0.08,0.02c-0.01,0.01-0.03,0.01-0.04,0.02c-0.48,0.2-0.96,0.4-1.43,0.6
				c-0.27,0.14-0.53,0.39-0.75,0.56c-0.26,0.2-0.5,0.34-0.71,0.57c-0.14,0.15-0.86,1.07-0.96,1.25c-0.02,0.03-0.04,0.06-0.05,0.09
				c-0.01,0.01-0.01,0.02-0.02,0.04c-0.2,0.48-0.4,0.96-0.6,1.43c-0.01,0.03-0.02,0.05-0.03,0.08c-0.01,0.03-0.01,0.05-0.01,0.08
				c-0.07,0.53-0.14,1.06-0.21,1.6c0,0.01,0,0.03,0,0.04c0,0.58,0.07,1.17,0.23,1.73c0.01,0.03,0.02,0.05,0.02,0.08
				c0.1,0.25,0.2,0.49,0.31,0.74c0.09,0.26,0.2,0.51,0.32,0.75c0.38,0.7,0.89,1.26,1.55,1.68c0.58,0.53,1.26,0.89,2.04,1.07
				c0.8,0.25,1.6,0.29,2.39,0.11c0.8-0.04,1.54-0.27,2.23-0.71c0.4-0.31,0.81-0.63,1.21-0.94c0.74-0.75,1.26-1.63,1.54-2.65
				c0.07-0.53,0.14-1.06,0.21-1.6c0-1.08-0.28-2.09-0.82-3.03c-0.01-0.01-0.01-0.02-0.02-0.04c0.2,0.48,0.4,0.96,0.6,1.43
				c-0.02-0.05-0.03-0.1-0.04-0.15c0.07,0.53,0.14,1.06,0.21,1.6c0-0.04,0-0.08,0-0.12c-0.07,0.53-0.14,1.06-0.21,1.6
				c0.01-0.05,0.02-0.1,0.04-0.15c-0.2,0.48-0.4,0.96-0.6,1.43c0.02-0.05,0.05-0.1,0.08-0.14c-0.31,0.4-0.63,0.81-0.94,1.21
				c0.03-0.04,0.07-0.08,0.11-0.12c-0.4,0.31-0.81,0.63-1.21,0.94c0.05-0.03,0.09-0.06,0.14-0.09c-0.48,0.2-0.96,0.4-1.43,0.6
				c0.04-0.02,0.08-0.03,0.12-0.04c0.78-0.19,1.46-0.54,2.04-1.07c0.65-0.42,1.17-0.98,1.55-1.68c0.44-0.69,0.68-1.43,0.71-2.23
				c0.18-0.8,0.14-1.6-0.11-2.39c-0.2-0.48-0.4-0.96-0.6-1.43c-0.53-0.9-1.25-1.62-2.15-2.15c-0.48-0.2-0.96-0.4-1.43-0.6
				C216.89,380.79,215.83,380.79,214.77,381.07L214.77,381.07z"/>
		</g>
	</g>
	<g class="st3">
		<path d="M230.6,394.19"/>
		<g>
			<path class="st0" d="M230.6,400.19c7.72,0,7.73-12,0-12C222.88,388.19,222.87,400.19,230.6,400.19L230.6,400.19z"/>
		</g>
	</g>
	<g class="st2">
		<path d="M155.01,370.9"/>
		<g>
			<path class="st0" d="M155.01,376.9c7.72,0,7.73-12,0-12C147.29,364.9,147.28,376.9,155.01,376.9L155.01,376.9z"/>
		</g>
	</g>
	<g>
		<path d="M123.46,371.54"/>
		<g>
			<path class="st0" d="M123.46,377.54c7.72,0,7.73-12,0-12C115.74,365.54,115.72,377.54,123.46,377.54L123.46,377.54z"/>
		</g>
	</g>
	<g class="st2">
		<path d="M122.47,354.52"/>
		<g>
			<path class="st0" d="M122.47,360.52c7.72,0,7.73-12,0-12C114.75,348.52,114.74,360.52,122.47,360.52L122.47,360.52z"/>
		</g>
	</g>
	<g class="st4">
		<path d="M122.57,319.97"/>
		<g>
			<path class="st0" d="M122.57,325.97c7.72,0,7.73-12,0-12C114.85,313.97,114.84,325.97,122.57,325.97L122.57,325.97z"/>
		</g>
	</g>
	<g class="st4">
		<path d="M141.75,328.09c-0.49-0.23-0.21-1.06,0.33-1.01s0.63,0.92,0.1,1.05"/>
		<g>
			<path class="st0" d="M144.78,322.91c-0.03-0.01-0.05-0.03-0.07-0.04c0.4,0.31,0.81,0.63,1.21,0.94
				c-0.03-0.03-0.06-0.05-0.09-0.08c0.31,0.4,0.63,0.81,0.94,1.21c-0.02-0.03-0.04-0.06-0.06-0.1c0.2,0.48,0.4,0.96,0.6,1.43
				c-0.01-0.04-0.02-0.07-0.03-0.11c0.07,0.53,0.14,1.06,0.21,1.6c-0.01-0.05-0.01-0.1,0-0.16c-0.07,0.53-0.14,1.06-0.21,1.6
				c0.01-0.05,0.02-0.1,0.04-0.16c-0.2,0.48-0.4,0.96-0.6,1.43c0.02-0.05,0.05-0.1,0.08-0.14c-0.31,0.4-0.63,0.81-0.94,1.21
				c0.03-0.04,0.07-0.08,0.11-0.12c-0.4,0.31-0.81,0.63-1.21,0.94c0.03-0.02,0.07-0.04,0.1-0.06c-0.48,0.2-0.96,0.4-1.43,0.6
				c0.04-0.02,0.08-0.03,0.12-0.04c-0.53,0.07-1.06,0.14-1.6,0.21c0.05-0.01,0.09-0.01,0.13,0c-0.53-0.07-1.06-0.14-1.6-0.21
				c0.06,0.01,0.11,0.02,0.16,0.04c-0.48-0.2-0.96-0.4-1.43-0.6c0.04,0.02,0.07,0.04,0.1,0.06c-0.4-0.31-0.81-0.63-1.21-0.94
				c0.03,0.03,0.05,0.05,0.08,0.08c-0.31-0.4-0.63-0.81-0.94-1.21c0.03,0.04,0.05,0.09,0.07,0.13c-0.2-0.48-0.4-0.96-0.6-1.43
				c0.02,0.05,0.03,0.1,0.04,0.15c-0.07-0.53-0.14-1.06-0.21-1.6c0,0.05,0,0.1,0,0.15c0.07-0.53,0.14-1.06,0.21-1.6
				c-0.01,0.05-0.02,0.1-0.04,0.15c0.2-0.48,0.4-0.96,0.6-1.43c-0.02,0.04-0.03,0.07-0.06,0.1c0.31-0.4,0.63-0.81,0.94-1.21
				c-0.02,0.03-0.05,0.06-0.08,0.08c0.4-0.31,0.81-0.63,1.21-0.94c-0.03,0.02-0.06,0.04-0.1,0.06c0.48-0.2,0.96-0.4,1.43-0.6
				c-0.03,0.01-0.05,0.02-0.08,0.03c-0.78,0.19-1.46,0.54-2.04,1.07c-0.65,0.42-1.17,0.98-1.55,1.68c-0.44,0.69-0.68,1.43-0.71,2.23
				c-0.18,0.8-0.14,1.6,0.11,2.39c0.2,0.48,0.4,0.96,0.6,1.43c0.53,0.9,1.25,1.62,2.15,2.15c0.48,0.2,0.96,0.4,1.43,0.6
				c1.06,0.29,2.13,0.29,3.19,0c0.03-0.01,0.05-0.02,0.08-0.03c0.48-0.2,0.96-0.4,1.43-0.6c0.03-0.02,0.07-0.04,0.1-0.06
				c-0.56,0.33,0.94-0.63,1.27-0.99c0.17-0.21,0.33-0.42,0.49-0.64c0.18-0.2,0.34-0.41,0.49-0.64c0.59-0.92,0.92-2.3,0.89-3.38
				c-0.03-1.29-0.14-1.5-0.56-2.48c0,0.01-0.2-0.56-0.33-0.79c-0.01-0.02-0.03-0.04-0.04-0.06c-0.31-0.4-0.63-0.81-0.94-1.21
				c-0.39-0.42-0.85-0.8-1.36-1.07c-0.24-0.13-0.49-0.23-0.75-0.32c-0.25-0.11-0.5-0.21-0.75-0.32c-0.04-0.01-0.08-0.02-0.12-0.03
				c-0.53-0.07-1.06-0.14-1.6-0.21c-0.03,0-0.06,0-0.09,0c-0.56,0.01-1.14,0.06-1.68,0.23c-0.27,0.08-0.58,0.24-0.79,0.33
				c-0.38,0.16-0.54,0.2-0.8,0.35c-0.49,0.29-0.96,0.64-1.34,1.07c0.48-0.54-0.75,0.86-0.98,1.28c-0.01,0.02-0.02,0.05-0.03,0.07
				c-0.2,0.48-0.4,0.96-0.6,1.43c-0.01,0.04-0.02,0.08-0.03,0.12c-0.05,0.28-0.08,0.56-0.11,0.84c-0.05,0.28-0.08,0.56-0.11,0.84
				c0.01,0.6,0.08,1.21,0.24,1.79c0.28,1.01,0.86,2.05,1.61,2.78c0.41,0.4,0.86,0.8,1.38,1.06c0.69,0.44,1.43,0.68,2.23,0.71
				c0.8,0.18,1.6,0.14,2.39-0.11c0.78-0.19,1.46-0.54,2.04-1.07c0.65-0.42,1.17-0.98,1.55-1.68c0.2-0.48,0.4-0.96,0.6-1.43
				c0.29-1.06,0.29-2.13,0-3.19c-0.2-0.48-0.4-0.96-0.6-1.43C146.4,324.16,145.68,323.44,144.78,322.91L144.78,322.91z"/>
		</g>
	</g>
	<g class="st4">
		<path d="M156.93,337.22"/>
		<g>
			<path class="st0" d="M156.93,343.22c7.72,0,7.73-12,0-12C149.21,331.22,149.2,343.22,156.93,343.22L156.93,343.22z"/>
		</g>
	</g>
	<g class="st4">
		<path d="M172.61,345.2"/>
		<g>
			<path class="st0" d="M172.61,351.2c7.72,0,7.73-12,0-12C164.89,339.2,164.87,351.2,172.61,351.2L172.61,351.2z"/>
		</g>
	</g>
	<g class="st4">
		<path d="M187.21,354.9c0.16,0,0.32,0,0.48,0"/>
		<g>
			<path class="st0" d="M187.21,360.9c0.16,0,0.32,0,0.48,0c0.83,0.03,1.6-0.14,2.31-0.52c0.74-0.24,1.39-0.66,1.93-1.24
				c0.59-0.54,1-1.19,1.24-1.93c0.38-0.72,0.55-1.49,0.52-2.31c-0.07-0.53-0.14-1.06-0.21-1.6c-0.29-1.02-0.8-1.9-1.54-2.65
				c-0.4-0.31-0.81-0.63-1.21-0.94c-0.94-0.54-1.95-0.82-3.03-0.82c-0.16,0-0.32,0-0.48,0c-0.83-0.03-1.6,0.14-2.31,0.52
				c-0.74,0.24-1.39,0.66-1.93,1.24c-0.59,0.54-1,1.19-1.24,1.93c-0.38,0.72-0.55,1.49-0.52,2.31c0.07,0.53,0.14,1.06,0.21,1.6
				c0.29,1.02,0.8,1.9,1.54,2.65c0.4,0.31,0.81,0.63,1.21,0.94C185.12,360.62,186.13,360.9,187.21,360.9L187.21,360.9z"/>
		</g>
	</g>
	<g class="st4">
		<path d="M202.11,363.09"/>
		<g>
			<path class="st0" d="M202.11,369.09c7.72,0,7.73-12,0-12C194.38,357.09,194.37,369.09,202.11,369.09L202.11,369.09z"/>
		</g>
	</g>
	<g class="st4">
		<path d="M217.48,369.56c-0.39,0.08-0.62,0.53-0.44,0.85"/>
		<g>
			<path class="st0" d="M215.88,363.77c-0.03,0.01-0.06,0.02-0.08,0.02c-0.01,0.01-0.03,0.01-0.04,0.02c-0.48,0.2-0.96,0.4-1.43,0.6
				c-0.27,0.14-0.53,0.39-0.75,0.56c-0.26,0.2-0.5,0.34-0.71,0.57c-0.14,0.15-0.86,1.07-0.96,1.25c-0.02,0.03-0.04,0.06-0.05,0.09
				c-0.01,0.01-0.01,0.02-0.02,0.04c-0.2,0.48-0.4,0.96-0.6,1.43c-0.01,0.03-0.02,0.05-0.03,0.08c-0.01,0.03-0.01,0.05-0.01,0.08
				c-0.07,0.53-0.14,1.06-0.21,1.6c0,0.01,0,0.03,0,0.04c0,0.58,0.07,1.17,0.23,1.73c0.01,0.03,0.02,0.05,0.02,0.08
				c0.1,0.25,0.2,0.49,0.31,0.74c0.09,0.26,0.2,0.51,0.32,0.75c0.38,0.7,0.89,1.26,1.55,1.68c0.58,0.53,1.26,0.89,2.04,1.07
				c0.8,0.25,1.6,0.29,2.39,0.11c0.8-0.04,1.54-0.27,2.23-0.71c0.4-0.31,0.81-0.63,1.21-0.94c0.74-0.75,1.26-1.63,1.54-2.65
				c0.07-0.53,0.14-1.06,0.21-1.6c0-1.08-0.28-2.09-0.82-3.03c-0.01-0.01-0.01-0.02-0.02-0.04c0.2,0.48,0.4,0.96,0.6,1.43
				c-0.02-0.05-0.03-0.1-0.04-0.15c0.07,0.53,0.14,1.06,0.21,1.6c0-0.04,0-0.08,0-0.12c-0.07,0.53-0.14,1.06-0.21,1.6
				c0.01-0.05,0.02-0.1,0.04-0.15c-0.2,0.48-0.4,0.96-0.6,1.43c0.02-0.05,0.05-0.1,0.08-0.14c-0.31,0.4-0.63,0.81-0.94,1.21
				c0.03-0.04,0.07-0.08,0.11-0.12c-0.4,0.31-0.81,0.63-1.21,0.94c0.05-0.03,0.09-0.06,0.14-0.09c-0.48,0.2-0.96,0.4-1.43,0.6
				c0.04-0.02,0.08-0.03,0.12-0.04c0.78-0.19,1.46-0.54,2.04-1.07c0.65-0.42,1.17-0.98,1.55-1.68c0.44-0.69,0.68-1.43,0.71-2.23
				c0.18-0.8,0.14-1.6-0.11-2.39c-0.2-0.48-0.4-0.96-0.6-1.43c-0.53-0.9-1.25-1.62-2.15-2.15c-0.48-0.2-0.96-0.4-1.43-0.6
				C218.01,363.49,216.94,363.49,215.88,363.77L215.88,363.77z"/>
		</g>
	</g>
	<g class="st4">
		<path d="M231.71,376.89"/>
		<g>
			<path class="st0" d="M231.71,382.89c7.72,0,7.73-12,0-12C223.99,370.89,223.98,382.89,231.71,382.89L231.71,382.89z"/>
		</g>
	</g>
	<g class="st5">
		<path d="M123.58,301.67"/>
		<g>
			<path class="st0" d="M123.58,307.67c7.72,0,7.73-12,0-12C115.86,295.67,115.85,307.67,123.58,307.67L123.58,307.67z"/>
		</g>
	</g>
	<g class="st5">
		<path d="M141.75,309.79c-0.49-0.23-0.21-1.06,0.33-1.01s0.63,0.92,0.1,1.05"/>
		<g>
			<path class="st0" d="M144.78,304.61c-0.03-0.01-0.05-0.03-0.07-0.04c0.4,0.31,0.81,0.63,1.21,0.94
				c-0.03-0.03-0.06-0.05-0.09-0.08c0.31,0.4,0.63,0.81,0.94,1.21c-0.02-0.03-0.04-0.06-0.06-0.1c0.2,0.48,0.4,0.96,0.6,1.43
				c-0.01-0.04-0.02-0.07-0.03-0.11c0.07,0.53,0.14,1.06,0.21,1.6c-0.01-0.05-0.01-0.1,0-0.16c-0.07,0.53-0.14,1.06-0.21,1.6
				c0.01-0.05,0.02-0.1,0.04-0.16c-0.2,0.48-0.4,0.96-0.6,1.43c0.02-0.05,0.05-0.1,0.08-0.14c-0.31,0.4-0.63,0.81-0.94,1.21
				c0.03-0.04,0.07-0.08,0.11-0.12c-0.4,0.31-0.81,0.63-1.21,0.94c0.03-0.02,0.07-0.04,0.1-0.06c-0.48,0.2-0.96,0.4-1.43,0.6
				c0.04-0.02,0.08-0.03,0.12-0.04c-0.53,0.07-1.06,0.14-1.6,0.21c0.05-0.01,0.09-0.01,0.13,0c-0.53-0.07-1.06-0.14-1.6-0.21
				c0.06,0.01,0.11,0.02,0.16,0.04c-0.48-0.2-0.96-0.4-1.43-0.6c0.04,0.02,0.07,0.04,0.1,0.06c-0.4-0.31-0.81-0.63-1.21-0.94
				c0.03,0.03,0.05,0.05,0.08,0.08c-0.31-0.4-0.63-0.81-0.94-1.21c0.03,0.04,0.05,0.09,0.07,0.13c-0.2-0.48-0.4-0.96-0.6-1.43
				c0.02,0.05,0.03,0.1,0.04,0.15c-0.07-0.53-0.14-1.06-0.21-1.6c0,0.05,0,0.1,0,0.15c0.07-0.53,0.14-1.06,0.21-1.6
				c-0.01,0.05-0.02,0.1-0.04,0.15c0.2-0.48,0.4-0.96,0.6-1.43c-0.02,0.04-0.03,0.07-0.06,0.1c0.31-0.4,0.63-0.81,0.94-1.21
				c-0.02,0.03-0.05,0.06-0.08,0.08c0.4-0.31,0.81-0.63,1.21-0.94c-0.03,0.02-0.06,0.04-0.1,0.06c0.48-0.2,0.96-0.4,1.43-0.6
				c-0.03,0.01-0.05,0.02-0.08,0.03c-0.78,0.19-1.46,0.54-2.04,1.07c-0.65,0.42-1.17,0.98-1.55,1.68c-0.44,0.69-0.68,1.43-0.71,2.23
				c-0.18,0.8-0.14,1.6,0.11,2.39c0.2,0.48,0.4,0.96,0.6,1.43c0.53,0.9,1.25,1.62,2.15,2.15c0.48,0.2,0.96,0.4,1.43,0.6
				c1.06,0.29,2.13,0.29,3.19,0c0.03-0.01,0.05-0.02,0.08-0.03c0.48-0.2,0.96-0.4,1.43-0.6c0.03-0.02,0.07-0.04,0.1-0.06
				c-0.56,0.33,0.94-0.63,1.27-0.99c0.17-0.21,0.33-0.42,0.49-0.64c0.18-0.2,0.34-0.41,0.49-0.64c0.59-0.92,0.92-2.3,0.89-3.38
				c-0.03-1.29-0.14-1.5-0.56-2.48c0,0.01-0.2-0.56-0.33-0.79c-0.01-0.02-0.03-0.04-0.04-0.06c-0.31-0.4-0.63-0.81-0.94-1.21
				c-0.39-0.42-0.85-0.8-1.36-1.07c-0.24-0.13-0.49-0.23-0.75-0.32c-0.25-0.11-0.5-0.21-0.75-0.32c-0.04-0.01-0.08-0.02-0.12-0.03
				c-0.53-0.07-1.06-0.14-1.6-0.21c-0.03,0-0.06,0-0.09,0c-0.56,0.01-1.14,0.06-1.68,0.23c-0.27,0.08-0.58,0.24-0.79,0.33
				c-0.38,0.16-0.54,0.2-0.8,0.35c-0.49,0.29-0.96,0.64-1.34,1.07c0.48-0.54-0.75,0.86-0.98,1.28c-0.01,0.02-0.02,0.05-0.03,0.07
				c-0.2,0.48-0.4,0.96-0.6,1.43c-0.01,0.04-0.02,0.08-0.03,0.12c-0.05,0.28-0.08,0.56-0.11,0.84c-0.05,0.28-0.08,0.56-0.11,0.84
				c0.01,0.6,0.08,1.21,0.24,1.79c0.28,1.01,0.86,2.05,1.61,2.78c0.41,0.4,0.86,0.8,1.38,1.06c0.69,0.44,1.43,0.68,2.23,0.71
				c0.8,0.18,1.6,0.14,2.39-0.11c0.78-0.19,1.46-0.54,2.04-1.07c0.65-0.42,1.17-0.98,1.55-1.68c0.2-0.48,0.4-0.96,0.6-1.43
				c0.29-1.06,0.29-2.13,0-3.19c-0.2-0.48-0.4-0.96-0.6-1.43C146.4,305.86,145.68,305.14,144.78,304.61L144.78,304.61z"/>
		</g>
	</g>
	<g class="st5">
		<path d="M156.93,318.92"/>
		<g>
			<path class="st0" d="M156.93,324.92c7.72,0,7.73-12,0-12C149.21,312.92,149.2,324.92,156.93,324.92L156.93,324.92z"/>
		</g>
	</g>
	<g class="st5">
		<path d="M172.61,326.9"/>
		<g>
			<path class="st0" d="M172.61,332.9c7.72,0,7.73-12,0-12C164.89,320.9,164.87,332.9,172.61,332.9L172.61,332.9z"/>
		</g>
	</g>
	<g class="st5">
		<path d="M187.21,336.6c0.16,0,0.32,0,0.48,0"/>
		<g>
			<path class="st0" d="M187.21,342.6c0.16,0,0.32,0,0.48,0c0.83,0.03,1.6-0.14,2.31-0.52c0.74-0.24,1.39-0.66,1.93-1.24
				c0.59-0.54,1-1.19,1.24-1.93c0.38-0.72,0.55-1.49,0.52-2.31c-0.07-0.53-0.14-1.06-0.21-1.6c-0.29-1.02-0.8-1.9-1.54-2.65
				c-0.4-0.31-0.81-0.63-1.21-0.94c-0.94-0.54-1.95-0.82-3.03-0.82c-0.16,0-0.32,0-0.48,0c-0.83-0.03-1.6,0.14-2.31,0.52
				c-0.74,0.24-1.39,0.66-1.93,1.24c-0.59,0.54-1,1.19-1.24,1.93c-0.38,0.72-0.55,1.49-0.52,2.31c0.07,0.53,0.14,1.06,0.21,1.6
				c0.29,1.02,0.8,1.9,1.54,2.65c0.4,0.31,0.81,0.63,1.21,0.94C185.12,342.32,186.13,342.6,187.21,342.6L187.21,342.6z"/>
		</g>
	</g>
	<g class="st5">
		<path d="M202.11,344.79"/>
		<g>
			<path class="st0" d="M202.11,350.79c7.72,0,7.73-12,0-12C194.38,338.79,194.37,350.79,202.11,350.79L202.11,350.79z"/>
		</g>
	</g>
	<g class="st5">
		<path d="M217.48,351.26c-0.39,0.08-0.62,0.53-0.44,0.85"/>
		<g>
			<path class="st0" d="M215.88,345.47c-0.03,0.01-0.06,0.02-0.08,0.02c-0.01,0.01-0.03,0.01-0.04,0.02c-0.48,0.2-0.96,0.4-1.43,0.6
				c-0.27,0.14-0.53,0.39-0.75,0.56c-0.26,0.2-0.5,0.34-0.71,0.57c-0.14,0.15-0.86,1.07-0.96,1.25c-0.02,0.03-0.04,0.06-0.05,0.09
				c-0.01,0.01-0.01,0.02-0.02,0.04c-0.2,0.48-0.4,0.96-0.6,1.43c-0.01,0.03-0.02,0.05-0.03,0.08c-0.01,0.03-0.01,0.05-0.01,0.08
				c-0.07,0.53-0.14,1.06-0.21,1.6c0,0.01,0,0.03,0,0.04c0,0.58,0.07,1.17,0.23,1.73c0.01,0.03,0.02,0.05,0.02,0.08
				c0.1,0.25,0.2,0.49,0.31,0.74c0.09,0.26,0.2,0.51,0.32,0.75c0.38,0.7,0.89,1.26,1.55,1.68c0.58,0.53,1.26,0.89,2.04,1.07
				c0.8,0.25,1.6,0.29,2.39,0.11c0.8-0.04,1.54-0.27,2.23-0.71c0.4-0.31,0.81-0.63,1.21-0.94c0.74-0.75,1.26-1.63,1.54-2.65
				c0.07-0.53,0.14-1.06,0.21-1.6c0-1.08-0.28-2.09-0.82-3.03c-0.01-0.01-0.01-0.02-0.02-0.04c0.2,0.48,0.4,0.96,0.6,1.43
				c-0.02-0.05-0.03-0.1-0.04-0.15c0.07,0.53,0.14,1.06,0.21,1.6c0-0.04,0-0.08,0-0.12c-0.07,0.53-0.14,1.06-0.21,1.6
				c0.01-0.05,0.02-0.1,0.04-0.15c-0.2,0.48-0.4,0.96-0.6,1.43c0.02-0.05,0.05-0.1,0.08-0.14c-0.31,0.4-0.63,0.81-0.94,1.21
				c0.03-0.04,0.07-0.08,0.11-0.12c-0.4,0.31-0.81,0.63-1.21,0.94c0.05-0.03,0.09-0.06,0.14-0.09c-0.48,0.2-0.96,0.4-1.43,0.6
				c0.04-0.02,0.08-0.03,0.12-0.04c0.78-0.19,1.46-0.54,2.04-1.07c0.65-0.42,1.17-0.98,1.55-1.68c0.44-0.69,0.68-1.43,0.71-2.23
				c0.18-0.8,0.14-1.6-0.11-2.39c-0.2-0.48-0.4-0.96-0.6-1.43c-0.53-0.9-1.25-1.62-2.15-2.15c-0.48-0.2-0.96-0.4-1.43-0.6
				C218.01,345.19,216.94,345.19,215.88,345.47L215.88,345.47z"/>
		</g>
	</g>
	<g class="st5">
		<path d="M231.71,358.59"/>
		<g>
			<path class="st0" d="M231.71,364.59c7.72,0,7.73-12,0-12C223.99,352.59,223.98,364.59,231.71,364.59L231.71,364.59z"/>
		</g>
	</g>
</g>
<g id="Layer_4">
	<g>
		<g>
			<path d="M1169.96,362.53"/>
			<g>
				<path class="st0" d="M1169.96,368.53c7.72,0,7.73-12,0-12C1162.23,356.53,1162.22,368.53,1169.96,368.53L1169.96,368.53z"/>
			</g>
		</g>
		<g>
			<path d="M1152.75,369.78"/>
			<g>
				<path class="st0" d="M1152.75,375.78c7.72,0,7.73-12,0-12C1145.03,363.78,1145.01,375.78,1152.75,375.78L1152.75,375.78z"/>
			</g>
		</g>
		<g>
			<path d="M1138.51,377.98c0,0.14,0,0.29,0,0.43"/>
			<g>
				<path class="st0" d="M1132.51,377.98c0,0.14,0,0.29,0,0.43c-0.03,0.83,0.14,1.6,0.52,2.31c0.24,0.74,0.66,1.39,1.24,1.93
					c0.54,0.59,1.19,1,1.93,1.24c0.72,0.38,1.49,0.55,2.31,0.52c0.53-0.07,1.06-0.14,1.59-0.21c1.02-0.29,1.9-0.8,2.65-1.54
					c0.31-0.4,0.63-0.81,0.94-1.21c0.54-0.94,0.82-1.95,0.82-3.03c0-0.14,0-0.29,0-0.43c0.03-0.83-0.14-1.6-0.52-2.31
					c-0.24-0.74-0.66-1.39-1.24-1.93c-0.54-0.59-1.19-1-1.93-1.24c-0.72-0.38-1.49-0.55-2.31-0.52c-0.53,0.07-1.06,0.14-1.6,0.21
					c-1.02,0.29-1.9,0.8-2.65,1.54c-0.31,0.4-0.63,0.81-0.94,1.21C1132.78,375.88,1132.51,376.89,1132.51,377.98L1132.51,377.98z"/>
			</g>
		</g>
		<g>
			<path d="M1123.79,384.88c-0.16-0.14-0.32-0.29-0.47-0.43"/>
			<g>
				<path class="st0" d="M1128.03,380.63c-0.16-0.14-0.32-0.29-0.47-0.43c-0.54-0.59-1.19-1-1.93-1.24
					c-0.72-0.38-1.49-0.55-2.31-0.52c-0.83-0.03-1.6,0.14-2.31,0.52c-0.74,0.24-1.39,0.66-1.93,1.24c-0.31,0.4-0.63,0.81-0.94,1.21
					c-0.54,0.94-0.82,1.95-0.82,3.03c0.07,0.53,0.14,1.06,0.21,1.6c0.29,1.02,0.8,1.9,1.54,2.65c0.16,0.14,0.32,0.29,0.47,0.43
					c0.54,0.59,1.19,1,1.93,1.24c0.72,0.38,1.49,0.55,2.31,0.52c0.83,0.03,1.6-0.14,2.31-0.52c0.74-0.24,1.39-0.66,1.93-1.24
					c0.31-0.4,0.63-0.81,0.94-1.21c0.54-0.94,0.82-1.95,0.82-3.03c-0.07-0.53-0.14-1.06-0.21-1.6
					C1129.29,382.26,1128.78,381.38,1128.03,380.63L1128.03,380.63z"/>
			</g>
		</g>
		<g>
			<path d="M1108.21,391.38c0.17-0.28,0.34-0.57,0.5-0.85"/>
			<g>
				<path class="st0" d="M1113.39,394.41c0.17-0.28,0.34-0.57,0.5-0.85c0.44-0.69,0.68-1.43,0.71-2.23c0.18-0.8,0.14-1.6-0.11-2.39
					c-0.19-0.78-0.54-1.46-1.07-2.04c-0.42-0.65-0.98-1.17-1.68-1.55c-0.48-0.2-0.96-0.4-1.43-0.6c-1.06-0.29-2.13-0.29-3.19,0
					c-0.48,0.2-0.96,0.4-1.43,0.6c-0.9,0.53-1.62,1.25-2.15,2.15c-0.17,0.28-0.34,0.57-0.5,0.85c-0.44,0.69-0.68,1.43-0.71,2.23
					c-0.18,0.8-0.14,1.6,0.11,2.39c0.19,0.78,0.54,1.46,1.07,2.04c0.42,0.65,0.98,1.17,1.68,1.55c0.48,0.2,0.96,0.4,1.43,0.6
					c1.06,0.29,2.13,0.29,3.19,0c0.48-0.2,0.96-0.4,1.43-0.6C1112.14,396.03,1112.85,395.31,1113.39,394.41L1113.39,394.41z"/>
			</g>
		</g>
		<g>
			<path d="M1092.93,398.67"/>
			<g>
				<path class="st0" d="M1092.93,404.67c7.72,0,7.73-12,0-12C1085.21,392.67,1085.2,404.67,1092.93,404.67L1092.93,404.67z"/>
			</g>
		</g>
		<g>
			<path d="M1079.17,406.01"/>
			<g>
				<path class="st0" d="M1079.17,412.01c7.72,0,7.73-12,0-12C1071.45,400.01,1071.43,412.01,1079.17,412.01L1079.17,412.01z"/>
			</g>
		</g>
		<g>
			<path d="M1064.52,412.54c-0.38,0.07,0.61,0.69,0.99,0.77"/>
			<g>
				<path class="st0" d="M1062.92,406.75c-1.52,0.36-2.87,1.45-3.66,2.79c-0.63,1.07-0.59,1.26-0.73,2.25
					c-0.14,1.02-0.23,1.2,0.11,2.42c0.28,1.02,0.92,2.2,1.74,2.88c0.46,0.38,1.06,0.91,1.65,1.22c0.6,0.31,1.21,0.63,1.87,0.78
					c0.8,0.25,1.6,0.29,2.39,0.11c0.8-0.04,1.54-0.27,2.23-0.71c0.7-0.38,1.26-0.89,1.68-1.55c0.53-0.58,0.89-1.26,1.07-2.04
					c0.07-0.53,0.14-1.06,0.21-1.6c0-1.08-0.28-2.09-0.82-3.03c-0.31-0.4-0.63-0.81-0.94-1.21c-0.75-0.74-1.63-1.26-2.65-1.54
					c-0.07-0.02-0.14-0.04-0.22-0.07c0.48,0.2,0.96,0.4,1.43,0.6c-0.23-0.1-0.45-0.22-0.65-0.37c0.4,0.31,0.81,0.63,1.21,0.94
					c-0.07-0.05-0.13-0.1-0.18-0.17c0.31,0.4,0.63,0.81,0.94,1.21c-0.01-0.02-0.02-0.03-0.03-0.05c0.2,0.48,0.4,0.96,0.6,1.43
					c0-0.01,0-0.01,0-0.02c0.07,0.53,0.14,1.06,0.21,1.6c0-0.01,0-0.02,0-0.03c-0.07,0.53-0.14,1.06-0.21,1.6c0,0,0-0.01,0.01-0.01
					c-0.2,0.48-0.4,0.96-0.6,1.43c0,0,0.01-0.01,0.01-0.01c-0.31,0.4-0.63,0.81-0.94,1.21c0,0,0.01-0.01,0.01-0.01
					c-0.4,0.31-0.81,0.63-1.21,0.94c0.01,0,0.01-0.01,0.02-0.01c-0.48,0.2-0.96,0.4-1.43,0.6c0.01-0.01,0.03-0.01,0.04-0.01
					c0.78-0.19,1.46-0.54,2.04-1.07c0.65-0.42,1.17-0.98,1.55-1.68c0.44-0.69,0.68-1.43,0.71-2.23c0.18-0.8,0.14-1.6-0.11-2.39
					c-0.2-0.48-0.4-0.96-0.6-1.43c-0.53-0.9-1.25-1.62-2.15-2.15c-0.48-0.2-0.96-0.4-1.43-0.6
					C1065.05,406.47,1063.98,406.47,1062.92,406.75L1062.92,406.75z"/>
			</g>
		</g>
		<g>
			<path d="M1152.32,353.83"/>
			<g>
				<path class="st0" d="M1152.32,359.83c7.72,0,7.73-12,0-12C1144.6,347.83,1144.59,359.83,1152.32,359.83L1152.32,359.83z"/>
			</g>
		</g>
		<g>
			<path d="M1137.86,363"/>
			<g>
				<path class="st0" d="M1137.86,369c7.72,0,7.73-12,0-12C1130.14,357,1130.13,369,1137.86,369L1137.86,369z"/>
			</g>
		</g>
		<g>
			<path d="M1122.69,368.92"/>
			<g>
				<path class="st0" d="M1122.69,374.92c7.72,0,7.73-12,0-12C1114.97,362.92,1114.96,374.92,1122.69,374.92L1122.69,374.92z"/>
			</g>
		</g>
		<g>
			<path d="M1107.63,376.25c0.16-0.14,0.32-0.29,0.47-0.43"/>
			<g>
				<path class="st0" d="M1111.87,380.49c0.16-0.14,0.32-0.29,0.47-0.43c0.59-0.54,1-1.19,1.24-1.93c0.38-0.72,0.55-1.49,0.52-2.31
					c0.03-0.83-0.14-1.6-0.52-2.31c-0.24-0.74-0.66-1.39-1.24-1.93c-0.4-0.31-0.81-0.63-1.21-0.94c-0.94-0.54-1.95-0.82-3.03-0.82
					c-0.53,0.07-1.06,0.14-1.59,0.21c-1.02,0.29-1.9,0.8-2.65,1.54c-0.16,0.14-0.32,0.29-0.47,0.43c-0.59,0.54-1,1.19-1.24,1.93
					c-0.38,0.72-0.55,1.49-0.52,2.31c-0.03,0.83,0.14,1.6,0.52,2.31c0.24,0.74,0.66,1.39,1.24,1.93c0.4,0.31,0.81,0.63,1.21,0.94
					c0.94,0.54,1.95,0.82,3.03,0.82c0.53-0.07,1.06-0.14,1.6-0.21C1110.24,381.75,1111.12,381.24,1111.87,380.49L1111.87,380.49z"/>
			</g>
		</g>
		<g>
			<path d="M1092.44,383.58c-0.16,0.14-0.32,0.29-0.47,0.43"/>
			<g>
				<path class="st0" d="M1088.2,379.34c-0.16,0.14-0.32,0.29-0.47,0.43c-0.59,0.54-1,1.19-1.24,1.93
					c-0.38,0.72-0.55,1.49-0.52,2.31c-0.03,0.83,0.14,1.6,0.52,2.31c0.24,0.74,0.66,1.39,1.24,1.93c0.4,0.31,0.81,0.63,1.21,0.94
					c0.94,0.54,1.95,0.82,3.03,0.82c0.53-0.07,1.06-0.14,1.6-0.21c1.02-0.29,1.9-0.8,2.65-1.54c0.16-0.14,0.32-0.29,0.47-0.43
					c0.59-0.54,1-1.19,1.24-1.93c0.38-0.72,0.55-1.49,0.52-2.31c0.03-0.83-0.14-1.6-0.52-2.31c-0.24-0.74-0.66-1.39-1.24-1.93
					c-0.4-0.31-0.81-0.63-1.21-0.94c-0.94-0.54-1.95-0.82-3.03-0.82c-0.53,0.07-1.06,0.14-1.6,0.21
					C1089.83,378.08,1088.94,378.6,1088.2,379.34L1088.2,379.34z"/>
			</g>
		</g>
		<g>
			<path d="M1078.52,390.91"/>
			<g>
				<path class="st0" d="M1078.52,396.91c7.72,0,7.73-12,0-12C1070.8,384.91,1070.79,396.91,1078.52,396.91L1078.52,396.91z"/>
			</g>
		</g>
		<g>
			<path d="M1064.03,398.24"/>
			<g>
				<path class="st0" d="M1064.03,404.24c7.72,0,7.73-12,0-12C1056.3,392.24,1056.29,404.24,1064.03,404.24L1064.03,404.24z"/>
			</g>
		</g>
		<g class="st2">
			<path d="M1152.03,336.79c-0.16,0.15-0.31,0.29-0.47,0.44"/>
			<g>
				<path class="st0" d="M1147.79,332.55c-0.16,0.15-0.31,0.29-0.47,0.44c-0.59,0.54-1,1.19-1.24,1.93
					c-0.38,0.72-0.55,1.49-0.52,2.31c-0.03,0.83,0.14,1.6,0.52,2.31c0.24,0.74,0.66,1.39,1.24,1.93c0.4,0.31,0.81,0.63,1.21,0.94
					c0.94,0.54,1.95,0.82,3.03,0.82c0.53-0.07,1.06-0.14,1.59-0.21c1.02-0.29,1.9-0.8,2.65-1.54c0.16-0.15,0.31-0.29,0.47-0.44
					c0.59-0.54,1-1.19,1.24-1.93c0.38-0.72,0.55-1.49,0.52-2.31c0.03-0.83-0.14-1.6-0.52-2.31c-0.24-0.74-0.66-1.39-1.24-1.93
					c-0.4-0.31-0.81-0.63-1.21-0.94c-0.94-0.54-1.95-0.82-3.03-0.82c-0.53,0.07-1.06,0.14-1.6,0.21
					C1149.42,331.29,1148.54,331.8,1147.79,332.55L1147.79,332.55z"/>
			</g>
		</g>
		<g class="st2">
			<path d="M1122.69,352.96"/>
			<g>
				<path class="st0" d="M1122.69,358.96c7.72,0,7.73-12,0-12C1114.97,346.96,1114.96,358.96,1122.69,358.96L1122.69,358.96z"/>
			</g>
		</g>
		<g class="st2">
			<path d="M1107.93,361.16c0-0.14,0-0.29,0-0.43"/>
			<g>
				<path class="st0" d="M1113.93,361.16c0-0.14,0-0.29,0-0.43c0.03-0.83-0.14-1.6-0.52-2.31c-0.24-0.74-0.66-1.39-1.24-1.93
					c-0.54-0.59-1.19-1-1.93-1.24c-0.72-0.38-1.49-0.55-2.31-0.52c-0.53,0.07-1.06,0.14-1.6,0.21c-1.02,0.29-1.9,0.8-2.65,1.54
					c-0.31,0.4-0.63,0.81-0.94,1.21c-0.54,0.94-0.82,1.95-0.82,3.03c0,0.14,0,0.29,0,0.43c-0.03,0.83,0.14,1.6,0.52,2.31
					c0.24,0.74,0.66,1.39,1.24,1.93c0.54,0.59,1.19,1,1.93,1.24c0.71,0.38,1.49,0.55,2.31,0.52c0.53-0.07,1.06-0.14,1.59-0.21
					c1.02-0.29,1.9-0.8,2.65-1.54c0.31-0.4,0.63-0.81,0.94-1.21C1113.66,363.25,1113.93,362.24,1113.93,361.16L1113.93,361.16z"/>
			</g>
		</g>
		<g class="st2">
			<path d="M1092.59,369.35c0-0.14,0-0.29,0-0.43"/>
			<g>
				<path class="st0" d="M1098.59,369.35c0-0.14,0-0.29,0-0.43c0.03-0.83-0.14-1.6-0.52-2.31c-0.24-0.74-0.66-1.39-1.24-1.93
					c-0.54-0.59-1.19-1-1.93-1.24c-0.72-0.38-1.49-0.55-2.31-0.52c-0.53,0.07-1.06,0.14-1.59,0.21c-1.02,0.29-1.9,0.8-2.65,1.54
					c-0.31,0.4-0.63,0.81-0.94,1.21c-0.54,0.94-0.82,1.95-0.82,3.03c0,0.14,0,0.29,0,0.43c-0.03,0.83,0.14,1.6,0.52,2.31
					c0.24,0.74,0.66,1.39,1.24,1.93c0.54,0.59,1.19,1,1.93,1.24c0.72,0.38,1.49,0.55,2.31,0.52c0.53-0.07,1.06-0.14,1.6-0.21
					c1.02-0.29,1.9-0.8,2.65-1.54c0.31-0.4,0.63-0.81,0.94-1.21C1098.31,371.44,1098.59,370.43,1098.59,369.35L1098.59,369.35z"/>
			</g>
		</g>
		<g class="st2">
			<path d="M1077.18,376.83c-0.04,0.21,0.44,0.19,0.39-0.01"/>
			<g>
				<path class="st0" d="M1071.39,375.24c-0.01,0.09-0.22,1.51-0.22,1.61c0,0.01,0,0.01,0,0.02c0,0.03,0.21,1.58,0.22,1.61
					c0,0.01,0,0.01,0.01,0.02c0.01,0.03,0.6,1.42,0.61,1.44c0,0,0.01,0.01,0.01,0.01c0.15,0.21,0.31,0.41,0.47,0.61
					c0.63,0.81,0.29,0.47,1.1,1.1c0.37,0.28,0.4,0.35,0.64,0.49c0.02,0.01,1.43,0.6,1.44,0.61c0.01,0,0.01,0.01,0.02,0.01
					c0.27,0.06,0.74,0.1,0.84,0.12c-0.23-0.03,0.59,0.12,0.85,0.11c0.01,0,0.02,0,0.03,0c0.09-0.01,1.52-0.2,1.61-0.22
					c0.02,0,0.03-0.01,0.05-0.01c0.01,0,0.01-0.01,0.02-0.01c0.05-0.02,1.4-0.59,1.44-0.61c0.01,0,0.01-0.01,0.02-0.01
					c0.02-0.01,1.2-0.92,1.22-0.94c0.01-0.01,0.02-0.02,0.03-0.03c0.04-0.04,0.92-1.18,0.95-1.23c0.01-0.01,0.61-1.43,0.61-1.44
					c0-0.01,0-0.01,0.01-0.02c0-0.01,0.22-1.59,0.22-1.61c0-0.27-0.07-0.53-0.11-0.81c0.04,0.33-0.05-0.57-0.11-0.82
					c-0.19-0.78-0.54-1.46-1.07-2.04c-0.42-0.65-0.98-1.17-1.68-1.55c-0.69-0.44-1.43-0.68-2.23-0.71c-0.8-0.18-1.59-0.14-2.39,0.11
					c-0.48,0.2-0.96,0.4-1.43,0.6c-0.9,0.53-1.62,1.25-2.15,2.15c-0.2,0.48-0.4,0.96-0.6,1.43c-0.29,1.06-0.29,2.13,0,3.19
					c0,0.01,0,0.02,0,0.02c-0.07-0.53-0.14-1.06-0.21-1.6c0,0.01,0,0.01,0,0.02c0.07-0.53,0.14-1.06,0.21-1.6
					c0,0.01,0,0.02-0.01,0.03c0.2-0.48,0.4-0.96,0.6-1.43c0,0.01-0.01,0.01-0.01,0.02c0.31-0.4,0.63-0.81,0.94-1.21
					c-0.01,0.01-0.02,0.02-0.03,0.03c0.4-0.31,0.81-0.63,1.21-0.94c-0.01,0.01-0.02,0.02-0.04,0.02c0.48-0.2,0.96-0.4,1.43-0.6
					c-0.02,0.01-0.05,0.02-0.07,0.02c0.53-0.07,1.06-0.14,1.6-0.21c-0.03,0-0.06,0-0.09,0c0.53,0.07,1.06,0.14,1.6,0.21
					c-0.02,0-0.05-0.01-0.07-0.02c0.48,0.2,0.96,0.4,1.43,0.6c-0.01-0.01-0.03-0.01-0.04-0.02c0.4,0.31,0.81,0.63,1.21,0.94
					c-0.01-0.01-0.02-0.01-0.02-0.02c0.31,0.4,0.63,0.81,0.94,1.21c-0.01-0.01-0.01-0.02-0.02-0.03c0.2,0.48,0.4,0.96,0.6,1.43
					c0-0.01-0.01-0.02-0.01-0.03c0.07,0.53,0.14,1.06,0.21,1.6c0-0.01,0-0.01,0-0.02c-0.07,0.53-0.14,1.06-0.21,1.6
					c0,0,0-0.01,0-0.01c0.25-0.8,0.29-1.6,0.11-2.39c-0.04-0.8-0.27-1.54-0.71-2.23c-0.38-0.7-0.89-1.26-1.55-1.68
					c-0.58-0.53-1.26-0.89-2.04-1.07c-0.53-0.07-1.06-0.14-1.59-0.21c-1.08,0-2.09,0.28-3.03,0.82c-0.4,0.31-0.81,0.63-1.21,0.94
					C1072.19,373.34,1071.68,374.22,1071.39,375.24L1071.39,375.24z"/>
			</g>
		</g>
		<g class="st2">
			<path d="M1063.33,383.15c0,0.14,0,0.29,0,0.43"/>
			<g>
				<path class="st0" d="M1057.33,383.15c0,0.14,0,0.29,0,0.43c-0.03,0.83,0.14,1.6,0.52,2.31c0.24,0.74,0.66,1.39,1.24,1.93
					c0.54,0.59,1.19,1,1.93,1.24c0.71,0.38,1.49,0.55,2.31,0.52c0.53-0.07,1.06-0.14,1.6-0.21c1.02-0.29,1.9-0.8,2.65-1.54
					c0.31-0.4,0.63-0.81,0.94-1.21c0.54-0.94,0.82-1.95,0.82-3.03c0-0.14,0-0.29,0-0.43c0.03-0.83-0.14-1.6-0.52-2.31
					c-0.24-0.74-0.66-1.39-1.24-1.93c-0.54-0.59-1.19-1-1.93-1.24c-0.71-0.38-1.49-0.55-2.31-0.52c-0.53,0.07-1.06,0.14-1.59,0.21
					c-1.02,0.29-1.9,0.8-2.65,1.54c-0.31,0.4-0.63,0.81-0.94,1.21C1057.61,381.06,1057.33,382.07,1057.33,383.15L1057.33,383.15z"/>
			</g>
		</g>
		<g class="st3">
			<path d="M1168.04,312"/>
			<g>
				<path class="st0" d="M1168.04,318c7.72,0,7.73-12,0-12C1160.32,306,1160.31,318,1168.04,318L1168.04,318z"/>
			</g>
		</g>
		<g class="st3">
			<path d="M1152.06,320.12c0.48-0.23,0.21-1.06-0.33-1.01s-0.62,0.92-0.09,1.05"/>
			<g>
				<path class="st0" d="M1155.09,325.3c0.03-0.01,0.05-0.03,0.07-0.04c0.4-0.31,0.81-0.63,1.21-0.94c0.03-0.03,0.06-0.06,0.09-0.08
					c0.34-0.4,0.65-0.81,0.95-1.23c0.01-0.02,0.02-0.03,0.03-0.05c0.11-0.25,0.22-0.5,0.32-0.75c0.12-0.25,0.22-0.5,0.32-0.75
					c0.34-1.07,0.29-2.49-0.02-3.56c-0.15-0.51-0.38-1.13-0.7-1.61c-0.29-0.44-0.59-0.9-0.98-1.26c-0.02-0.02-0.04-0.04-0.06-0.05
					c-0.4-0.31-0.81-0.63-1.21-0.94c-0.49-0.31-1.05-0.56-1.61-0.7c-0.28-0.06-0.55-0.1-0.84-0.12c-0.28-0.04-0.56-0.08-0.84-0.11
					c-0.55-0.01-1.47,0.17-1.68,0.21c-0.04,0.01-0.08,0.02-0.12,0.03c-0.48,0.2-0.96,0.4-1.43,0.6c-0.02,0.01-0.05,0.02-0.07,0.03
					c-0.49,0.27-0.95,0.64-1.34,1.05c-0.37,0.38-0.73,0.81-0.98,1.28c-0.01,0.02-0.02,0.03-0.03,0.05c-0.2,0.48-0.4,0.96-0.6,1.43
					c-0.01,0.04-0.03,0.07-0.04,0.11c-0.01,0.03-0.01,0.05-0.01,0.08c-0.07,0.53-0.14,1.06-0.21,1.6c0,0.04,0,0.08,0,0.12
					c0.03,0.28,0.06,0.56,0.11,0.84c0.03,0.28,0.07,0.56,0.11,0.84c0.15,0.56,0.38,1.11,0.67,1.61c0.86,1.47,2.24,2.48,3.86,2.96
					c0.8,0.25,1.6,0.29,2.39,0.11c0.8-0.04,1.54-0.27,2.23-0.71c0.7-0.38,1.26-0.89,1.68-1.55c0.53-0.58,0.89-1.26,1.07-2.04
					c0.07-0.53,0.14-1.06,0.21-1.6c0-1.08-0.28-2.09-0.82-3.03c-0.31-0.4-0.63-0.81-0.94-1.21c-0.75-0.74-1.63-1.26-2.65-1.54
					c-0.03-0.01-0.05-0.02-0.08-0.03c0.48,0.2,0.96,0.4,1.43,0.6c-0.04-0.02-0.07-0.04-0.1-0.06c0.4,0.31,0.81,0.63,1.21,0.94
					c-0.03-0.03-0.05-0.05-0.08-0.08c0.31,0.4,0.63,0.81,0.94,1.21c-0.02-0.03-0.04-0.06-0.05-0.1c0.2,0.48,0.4,0.96,0.6,1.43
					c-0.02-0.05-0.03-0.1-0.04-0.15c0.07,0.53,0.14,1.06,0.21,1.6c0-0.05,0-0.1,0-0.15c-0.07,0.53-0.14,1.06-0.21,1.6
					c0.01-0.07,0.03-0.13,0.05-0.19c-0.2,0.48-0.4,0.96-0.6,1.43c0.02-0.04,0.04-0.07,0.06-0.1c-0.31,0.4-0.63,0.81-0.94,1.21
					c0.03-0.04,0.07-0.07,0.11-0.11c-0.4,0.31-0.81,0.63-1.21,0.94c0.03-0.02,0.07-0.04,0.1-0.05c-0.48,0.2-0.96,0.4-1.43,0.6
					c0.04-0.01,0.08-0.02,0.12-0.03c-0.53,0.07-1.06,0.14-1.6,0.21c0.05,0,0.08,0,0.13,0c-0.53-0.07-1.06-0.14-1.59-0.21
					c0.04,0.01,0.08,0.02,0.12,0.04c-0.48-0.2-0.96-0.4-1.43-0.6c0.04,0.02,0.07,0.04,0.1,0.06c-0.4-0.31-0.81-0.63-1.21-0.94
					c0.03,0.03,0.06,0.05,0.09,0.08c-0.31-0.4-0.63-0.81-0.94-1.21c0.04,0.05,0.07,0.11,0.1,0.17c-0.2-0.48-0.4-0.96-0.6-1.43
					c0.02,0.05,0.03,0.1,0.04,0.16c-0.07-0.53-0.14-1.06-0.21-1.6c0.01,0.05,0.01,0.1,0,0.16c0.07-0.53,0.14-1.06,0.21-1.6
					c-0.01,0.04-0.02,0.07-0.03,0.11c0.2-0.48,0.4-0.96,0.6-1.43c-0.02,0.04-0.03,0.07-0.06,0.1c0.31-0.4,0.63-0.81,0.94-1.21
					c-0.03,0.03-0.05,0.06-0.09,0.08c0.4-0.31,0.81-0.63,1.21-0.94c-0.02,0.02-0.05,0.03-0.07,0.04c-0.7,0.38-1.26,0.89-1.68,1.55
					c-0.53,0.58-0.89,1.26-1.07,2.04c-0.25,0.8-0.29,1.6-0.11,2.39c0.04,0.8,0.27,1.54,0.71,2.23c0.31,0.4,0.63,0.81,0.94,1.21
					c0.75,0.74,1.63,1.26,2.65,1.54c0.53,0.07,1.06,0.14,1.59,0.21C1153.14,326.11,1154.15,325.84,1155.09,325.3L1155.09,325.3z"/>
			</g>
		</g>
		<g class="st3">
			<path d="M1137.06,329.25"/>
			<g>
				<path class="st0" d="M1137.06,335.25c7.72,0,7.73-12,0-12C1129.34,323.25,1129.33,335.25,1137.06,335.25L1137.06,335.25z"/>
			</g>
		</g>
		<g class="st3">
			<path d="M1121.57,337.23"/>
			<g>
				<path class="st0" d="M1121.57,343.23c7.72,0,7.73-12,0-12C1113.85,331.23,1113.83,343.23,1121.57,343.23L1121.57,343.23z"/>
			</g>
		</g>
		<g class="st3">
			<path d="M1107.13,346.93c-0.16,0-0.32,0-0.47,0"/>
			<g>
				<path class="st0" d="M1107.13,340.93c-0.16,0-0.32,0-0.47,0c-0.83-0.03-1.6,0.14-2.31,0.52c-0.74,0.24-1.39,0.66-1.93,1.24
					c-0.59,0.54-1,1.19-1.24,1.93c-0.38,0.72-0.55,1.49-0.52,2.31c0.07,0.53,0.14,1.06,0.21,1.6c0.29,1.02,0.8,1.9,1.54,2.65
					c0.4,0.31,0.81,0.63,1.21,0.94c0.94,0.54,1.95,0.82,3.03,0.82c0.16,0,0.32,0,0.47,0c0.83,0.03,1.6-0.14,2.31-0.52
					c0.74-0.24,1.39-0.66,1.93-1.24c0.59-0.54,1-1.19,1.24-1.93c0.38-0.72,0.55-1.49,0.52-2.31c-0.07-0.53-0.14-1.06-0.21-1.6
					c-0.29-1.02-0.8-1.9-1.54-2.65c-0.4-0.31-0.81-0.63-1.21-0.94C1109.23,341.2,1108.22,340.93,1107.13,340.93L1107.13,340.93z"/>
			</g>
		</g>
		<g class="st3">
			<path d="M1092.42,355.12"/>
			<g>
				<path class="st0" d="M1092.42,361.12c7.72,0,7.73-12,0-12C1084.7,349.12,1084.68,361.12,1092.42,361.12L1092.42,361.12z"/>
			</g>
		</g>
		<g class="st3">
			<path d="M1077.23,361.59c0.38,0.08,0.61,0.53,0.44,0.85"/>
			<g>
				<path class="st0" d="M1075.63,367.37c0.03,0.01,0.06,0.01,0.09,0.03c-0.48-0.2-0.96-0.4-1.43-0.6c0.05,0.02,0.1,0.05,0.15,0.08
					c-0.4-0.31-0.81-0.63-1.21-0.94c0.05,0.04,0.08,0.07,0.12,0.12c-0.31-0.4-0.63-0.81-0.94-1.21c0.03,0.05,0.06,0.09,0.09,0.14
					c-0.2-0.48-0.4-0.96-0.6-1.43c0.02,0.05,0.04,0.1,0.05,0.16c-0.07-0.53-0.14-1.06-0.21-1.6c0.01,0.06,0.01,0.11,0,0.16
					c0.07-0.53,0.14-1.06,0.21-1.6c-0.01,0.04-0.02,0.08-0.03,0.12c0.2-0.48,0.4-0.96,0.6-1.43c-0.01,0.01-0.01,0.03-0.02,0.04
					c-0.44,0.69-0.68,1.43-0.71,2.23c-0.18,0.8-0.14,1.6,0.11,2.39c0.19,0.78,0.54,1.46,1.07,2.04c0.42,0.65,0.98,1.17,1.68,1.55
					c0.48,0.2,0.96,0.4,1.43,0.6c1.06,0.29,2.13,0.29,3.19,0c0.48-0.2,0.96-0.4,1.43-0.6c0.9-0.53,1.62-1.25,2.15-2.15
					c0.01-0.01,0.01-0.03,0.02-0.04c0.2-0.48,0.4-0.96,0.6-1.43c0.01-0.03,0.02-0.05,0.03-0.08c0-0.01,0.01-0.03,0.01-0.04
					c0.07-0.53,0.14-1.06,0.21-1.6c0-0.03,0.01-0.05,0.01-0.08c0-0.03,0-0.05-0.01-0.08c-0.07-0.53-0.14-1.06-0.21-1.6
					c0-0.01,0-0.03-0.01-0.04c-0.14-0.55-0.39-1.09-0.65-1.57c-0.15-0.27-0.36-0.49-0.55-0.73c-0.19-0.25-0.35-0.51-0.57-0.71
					c-0.16-0.14-1.07-0.85-1.25-0.96c-0.02-0.02-0.05-0.03-0.07-0.04c-0.22-0.12-0.88-0.37-0.78-0.33c-0.22-0.09-0.53-0.26-0.8-0.33
					c-0.8-0.25-1.59-0.29-2.39-0.11c-0.8,0.04-1.54,0.27-2.23,0.71c-0.7,0.38-1.26,0.89-1.68,1.55c-0.53,0.58-0.89,1.26-1.07,2.04
					c-0.07,0.53-0.14,1.06-0.21,1.6c0,1.08,0.28,2.09,0.82,3.03c0.31,0.4,0.63,0.81,0.94,1.21
					C1073.73,366.57,1074.62,367.09,1075.63,367.37L1075.63,367.37z"/>
			</g>
		</g>
		<g class="st3">
			<path d="M1063.16,368.92"/>
			<g>
				<path class="st0" d="M1063.16,374.92c7.72,0,7.73-12,0-12C1055.44,362.92,1055.42,374.92,1063.16,374.92L1063.16,374.92z"/>
			</g>
		</g>
		<g class="st2">
			<path d="M1137.86,345.63"/>
			<g>
				<path class="st0" d="M1137.86,351.63c7.72,0,7.73-12,0-12C1130.14,339.63,1130.13,351.63,1137.86,351.63L1137.86,351.63z"/>
			</g>
		</g>
		<g>
			<path d="M1169.04,346.27"/>
			<g>
				<path class="st0" d="M1169.04,352.27c7.72,0,7.73-12,0-12C1161.32,340.27,1161.31,352.27,1169.04,352.27L1169.04,352.27z"/>
			</g>
		</g>
		<g class="st2">
			<path d="M1168.04,329.25"/>
			<g>
				<path class="st0" d="M1168.04,335.25c7.72,0,7.73-12,0-12C1160.32,323.25,1160.31,335.25,1168.04,335.25L1168.04,335.25z"/>
			</g>
		</g>
		<g class="st4">
			<path d="M1167.94,294.7"/>
			<g>
				<path class="st0" d="M1167.94,300.7c7.72,0,7.73-12,0-12C1160.22,288.7,1160.21,300.7,1167.94,300.7L1167.94,300.7z"/>
			</g>
		</g>
		<g class="st4">
			<path d="M1150.96,302.82c0.48-0.23,0.21-1.06-0.33-1.01s-0.62,0.92-0.09,1.05"/>
			<g>
				<path class="st0" d="M1153.99,308c0.03-0.01,0.05-0.03,0.07-0.04c0.4-0.31,0.81-0.63,1.21-0.94c0.03-0.03,0.06-0.06,0.09-0.08
					c0.34-0.4,0.65-0.81,0.95-1.23c0.01-0.02,0.02-0.03,0.03-0.05c0.11-0.25,0.22-0.5,0.32-0.75c0.12-0.25,0.22-0.5,0.32-0.75
					c0.34-1.07,0.29-2.49-0.02-3.56c-0.15-0.51-0.38-1.13-0.7-1.61c-0.29-0.44-0.59-0.9-0.98-1.26c-0.02-0.02-0.04-0.04-0.06-0.05
					c-0.4-0.31-0.81-0.63-1.21-0.94c-0.49-0.31-1.05-0.56-1.61-0.7c-0.28-0.06-0.55-0.1-0.84-0.12c-0.28-0.04-0.56-0.08-0.84-0.11
					c-0.55-0.01-1.47,0.17-1.68,0.21c-0.04,0.01-0.08,0.02-0.12,0.03c-0.48,0.2-0.96,0.4-1.43,0.6c-0.02,0.01-0.05,0.02-0.07,0.03
					c-0.49,0.27-0.95,0.64-1.34,1.05c-0.37,0.38-0.73,0.81-0.98,1.28c-0.01,0.02-0.02,0.03-0.03,0.05c-0.2,0.48-0.4,0.96-0.6,1.43
					c-0.01,0.04-0.03,0.07-0.04,0.11c-0.01,0.03-0.01,0.05-0.01,0.08c-0.07,0.53-0.14,1.06-0.21,1.6c0,0.04,0,0.08,0,0.12
					c0.03,0.28,0.06,0.56,0.11,0.84c0.03,0.28,0.07,0.56,0.11,0.84c0.15,0.56,0.38,1.11,0.67,1.61c0.86,1.47,2.24,2.48,3.86,2.96
					c0.8,0.25,1.6,0.29,2.39,0.11c0.8-0.04,1.54-0.27,2.23-0.71c0.7-0.38,1.26-0.89,1.68-1.55c0.53-0.58,0.89-1.26,1.07-2.04
					c0.07-0.53,0.14-1.06,0.21-1.6c0-1.08-0.28-2.09-0.82-3.03c-0.31-0.4-0.63-0.81-0.94-1.21c-0.75-0.74-1.63-1.26-2.65-1.54
					c-0.03-0.01-0.05-0.02-0.08-0.03c0.48,0.2,0.96,0.4,1.43,0.6c-0.04-0.02-0.07-0.04-0.1-0.06c0.4,0.31,0.81,0.63,1.21,0.94
					c-0.03-0.03-0.05-0.05-0.08-0.08c0.31,0.4,0.63,0.81,0.94,1.21c-0.02-0.03-0.04-0.06-0.05-0.1c0.2,0.48,0.4,0.96,0.6,1.43
					c-0.02-0.05-0.03-0.1-0.04-0.15c0.07,0.53,0.14,1.06,0.21,1.6c0-0.05,0-0.1,0-0.15c-0.07,0.53-0.14,1.06-0.21,1.6
					c0.01-0.07,0.03-0.13,0.05-0.19c-0.2,0.48-0.4,0.96-0.6,1.43c0.02-0.04,0.04-0.07,0.06-0.1c-0.31,0.4-0.63,0.81-0.94,1.21
					c0.03-0.04,0.07-0.07,0.11-0.11c-0.4,0.31-0.81,0.63-1.21,0.94c0.03-0.02,0.07-0.04,0.1-0.05c-0.48,0.2-0.96,0.4-1.43,0.6
					c0.04-0.01,0.08-0.02,0.12-0.03c-0.53,0.07-1.06,0.14-1.59,0.21c0.05,0,0.08,0,0.13,0c-0.53-0.07-1.06-0.14-1.59-0.21
					c0.04,0.01,0.08,0.02,0.12,0.04c-0.48-0.2-0.96-0.4-1.43-0.6c0.04,0.02,0.07,0.04,0.1,0.06c-0.4-0.31-0.81-0.63-1.21-0.94
					c0.03,0.03,0.06,0.05,0.09,0.08c-0.31-0.4-0.63-0.81-0.94-1.21c0.04,0.05,0.07,0.11,0.1,0.17c-0.2-0.48-0.4-0.96-0.6-1.43
					c0.02,0.05,0.03,0.1,0.04,0.16c-0.07-0.53-0.14-1.06-0.21-1.6c0.01,0.05,0.01,0.1,0,0.16c0.07-0.53,0.14-1.06,0.21-1.6
					c-0.01,0.04-0.02,0.07-0.03,0.11c0.2-0.48,0.4-0.96,0.6-1.43c-0.02,0.04-0.03,0.07-0.06,0.1c0.31-0.4,0.63-0.81,0.94-1.21
					c-0.03,0.03-0.05,0.06-0.09,0.08c0.4-0.31,0.81-0.63,1.21-0.94c-0.02,0.02-0.05,0.03-0.07,0.04c-0.7,0.38-1.26,0.89-1.68,1.55
					c-0.53,0.58-0.89,1.26-1.07,2.04c-0.25,0.8-0.29,1.6-0.11,2.39c0.04,0.8,0.27,1.54,0.71,2.23c0.31,0.4,0.63,0.81,0.94,1.21
					c0.75,0.74,1.63,1.26,2.65,1.54c0.53,0.07,1.06,0.14,1.6,0.21C1152.04,308.81,1153.05,308.54,1153.99,308L1153.99,308z"/>
			</g>
		</g>
		<g class="st4">
			<path d="M1135.96,311.95"/>
			<g>
				<path class="st0" d="M1135.96,317.95c7.72,0,7.73-12,0-12C1128.24,305.95,1128.23,317.95,1135.96,317.95L1135.96,317.95z"/>
			</g>
		</g>
		<g class="st4">
			<path d="M1120.47,319.93"/>
			<g>
				<path class="st0" d="M1120.47,325.93c7.72,0,7.73-12,0-12C1112.75,313.93,1112.73,325.93,1120.47,325.93L1120.47,325.93z"/>
			</g>
		</g>
		<g class="st4">
			<path d="M1106.03,329.63c-0.16,0-0.32,0-0.47,0"/>
			<g>
				<path class="st0" d="M1106.03,323.63c-0.16,0-0.32,0-0.47,0c-0.83-0.03-1.6,0.14-2.31,0.52c-0.74,0.24-1.39,0.66-1.93,1.24
					c-0.59,0.54-1,1.19-1.24,1.93c-0.38,0.72-0.55,1.49-0.52,2.31c0.07,0.53,0.14,1.06,0.21,1.6c0.29,1.02,0.8,1.9,1.54,2.65
					c0.4,0.31,0.81,0.63,1.21,0.94c0.94,0.54,1.95,0.82,3.03,0.82c0.16,0,0.32,0,0.47,0c0.83,0.03,1.6-0.14,2.31-0.52
					c0.74-0.24,1.39-0.66,1.93-1.24c0.59-0.54,1-1.19,1.24-1.93c0.38-0.72,0.55-1.49,0.52-2.31c-0.07-0.53-0.14-1.06-0.21-1.6
					c-0.29-1.02-0.8-1.9-1.54-2.65c-0.4-0.31-0.81-0.63-1.21-0.94C1108.13,323.9,1107.12,323.63,1106.03,323.63L1106.03,323.63z"/>
			</g>
		</g>
		<g class="st4">
			<path d="M1091.32,337.82"/>
			<g>
				<path class="st0" d="M1091.32,343.82c7.72,0,7.73-12,0-12C1083.6,331.82,1083.58,343.82,1091.32,343.82L1091.32,343.82z"/>
			</g>
		</g>
		<g class="st4">
			<path d="M1076.13,344.29c0.38,0.08,0.61,0.53,0.44,0.85"/>
			<g>
				<path class="st0" d="M1074.53,350.07c0.03,0.01,0.06,0.01,0.09,0.03c-0.48-0.2-0.96-0.4-1.43-0.6c0.05,0.02,0.1,0.05,0.15,0.08
					c-0.4-0.31-0.81-0.63-1.21-0.94c0.05,0.04,0.08,0.07,0.12,0.12c-0.31-0.4-0.63-0.81-0.94-1.21c0.03,0.05,0.06,0.09,0.09,0.14
					c-0.2-0.48-0.4-0.96-0.6-1.43c0.02,0.05,0.04,0.1,0.05,0.16c-0.07-0.53-0.14-1.06-0.21-1.6c0.01,0.06,0.01,0.11,0,0.16
					c0.07-0.53,0.14-1.06,0.21-1.6c-0.01,0.04-0.02,0.08-0.03,0.12c0.2-0.48,0.4-0.96,0.6-1.43c-0.01,0.01-0.01,0.02-0.02,0.04
					c-0.44,0.69-0.68,1.43-0.71,2.23c-0.18,0.8-0.14,1.6,0.11,2.39c0.19,0.78,0.54,1.46,1.07,2.04c0.42,0.65,0.98,1.17,1.68,1.55
					c0.48,0.2,0.96,0.4,1.43,0.6c1.06,0.29,2.13,0.29,3.19,0c0.48-0.2,0.96-0.4,1.43-0.6c0.9-0.53,1.62-1.25,2.15-2.15
					c0.01-0.01,0.01-0.03,0.02-0.04c0.2-0.48,0.4-0.96,0.6-1.43c0.01-0.03,0.02-0.05,0.03-0.08c0-0.01,0.01-0.03,0.01-0.04
					c0.07-0.53,0.14-1.06,0.21-1.6c0-0.03,0.01-0.05,0.01-0.08c0-0.03,0-0.05-0.01-0.08c-0.07-0.53-0.14-1.06-0.21-1.6
					c0-0.01,0-0.03-0.01-0.04c-0.14-0.55-0.39-1.09-0.65-1.57c-0.15-0.27-0.36-0.49-0.55-0.73c-0.19-0.25-0.35-0.51-0.57-0.71
					c-0.16-0.14-1.07-0.85-1.25-0.96c-0.02-0.02-0.05-0.03-0.07-0.04c-0.22-0.12-0.88-0.37-0.78-0.33c-0.22-0.09-0.53-0.26-0.8-0.33
					c-0.8-0.25-1.59-0.29-2.39-0.11c-0.8,0.04-1.54,0.27-2.23,0.71c-0.7,0.38-1.26,0.89-1.68,1.55c-0.53,0.58-0.89,1.26-1.07,2.04
					c-0.07,0.53-0.14,1.06-0.21,1.6c0,1.08,0.28,2.09,0.82,3.03c0.31,0.4,0.63,0.81,0.94,1.21
					C1072.63,349.27,1073.52,349.79,1074.53,350.07L1074.53,350.07z"/>
			</g>
		</g>
		<g class="st4">
			<path d="M1062.06,352.62"/>
			<g>
				<path class="st0" d="M1062.06,358.62c7.72,0,7.73-12,0-12C1054.33,346.62,1054.32,358.62,1062.06,358.62L1062.06,358.62z"/>
			</g>
		</g>
		<g class="st5">
			<path d="M1166.94,276.4"/>
			<g>
				<path class="st0" d="M1166.94,282.4c7.72,0,7.73-12,0-12C1159.22,270.4,1159.21,282.4,1166.94,282.4L1166.94,282.4z"/>
			</g>
		</g>
		<g class="st5">
			<path d="M1150.96,284.52c0.48-0.23,0.21-1.06-0.33-1.01s-0.62,0.92-0.09,1.05"/>
			<g>
				<path class="st0" d="M1153.99,289.7c0.03-0.01,0.05-0.03,0.07-0.04c0.4-0.31,0.81-0.63,1.21-0.94c0.03-0.03,0.06-0.06,0.09-0.08
					c0.34-0.4,0.65-0.81,0.95-1.23c0.01-0.02,0.02-0.03,0.03-0.05c0.11-0.25,0.22-0.5,0.32-0.75c0.12-0.25,0.22-0.5,0.32-0.75
					c0.34-1.07,0.29-2.49-0.02-3.56c-0.15-0.51-0.38-1.13-0.7-1.61c-0.29-0.44-0.59-0.9-0.98-1.26c-0.02-0.02-0.04-0.04-0.06-0.05
					c-0.4-0.31-0.81-0.63-1.21-0.94c-0.49-0.31-1.05-0.56-1.61-0.7c-0.28-0.06-0.55-0.1-0.84-0.12c-0.28-0.04-0.56-0.08-0.84-0.11
					c-0.55-0.01-1.47,0.17-1.68,0.21c-0.04,0.01-0.08,0.02-0.12,0.03c-0.48,0.2-0.96,0.4-1.43,0.6c-0.02,0.01-0.05,0.02-0.07,0.03
					c-0.49,0.27-0.95,0.64-1.34,1.05c-0.37,0.38-0.73,0.81-0.98,1.28c-0.01,0.02-0.02,0.03-0.03,0.05c-0.2,0.48-0.4,0.96-0.6,1.43
					c-0.01,0.04-0.03,0.07-0.04,0.11c-0.01,0.03-0.01,0.05-0.01,0.08c-0.07,0.53-0.14,1.06-0.21,1.6c0,0.04,0,0.08,0,0.12
					c0.03,0.28,0.06,0.56,0.11,0.84c0.03,0.28,0.07,0.56,0.11,0.84c0.15,0.56,0.38,1.11,0.67,1.61c0.86,1.47,2.24,2.48,3.86,2.96
					c0.8,0.25,1.6,0.29,2.39,0.11c0.8-0.04,1.54-0.27,2.23-0.71c0.7-0.38,1.26-0.89,1.68-1.55c0.53-0.58,0.89-1.26,1.07-2.04
					c0.07-0.53,0.14-1.06,0.21-1.6c0-1.08-0.28-2.09-0.82-3.03c-0.31-0.4-0.63-0.81-0.94-1.21c-0.75-0.74-1.63-1.26-2.65-1.54
					c-0.03-0.01-0.05-0.02-0.08-0.03c0.48,0.2,0.96,0.4,1.43,0.6c-0.04-0.02-0.07-0.04-0.1-0.06c0.4,0.31,0.81,0.63,1.21,0.94
					c-0.03-0.03-0.05-0.05-0.08-0.08c0.31,0.4,0.63,0.81,0.94,1.21c-0.02-0.03-0.04-0.06-0.05-0.1c0.2,0.48,0.4,0.96,0.6,1.43
					c-0.02-0.05-0.03-0.1-0.04-0.15c0.07,0.53,0.14,1.06,0.21,1.6c0-0.05,0-0.1,0-0.15c-0.07,0.53-0.14,1.06-0.21,1.6
					c0.01-0.07,0.03-0.13,0.05-0.19c-0.2,0.48-0.4,0.96-0.6,1.43c0.02-0.04,0.04-0.07,0.06-0.1c-0.31,0.4-0.63,0.81-0.94,1.21
					c0.03-0.04,0.07-0.07,0.11-0.11c-0.4,0.31-0.81,0.63-1.21,0.94c0.03-0.02,0.07-0.04,0.1-0.05c-0.48,0.2-0.96,0.4-1.43,0.6
					c0.04-0.01,0.08-0.02,0.12-0.03c-0.53,0.07-1.06,0.14-1.59,0.21c0.05,0,0.08,0,0.13,0c-0.53-0.07-1.06-0.14-1.59-0.21
					c0.04,0.01,0.08,0.02,0.12,0.04c-0.48-0.2-0.96-0.4-1.43-0.6c0.04,0.02,0.07,0.04,0.1,0.06c-0.4-0.31-0.81-0.63-1.21-0.94
					c0.03,0.03,0.06,0.05,0.09,0.08c-0.31-0.4-0.63-0.81-0.94-1.21c0.04,0.05,0.07,0.11,0.1,0.17c-0.2-0.48-0.4-0.96-0.6-1.43
					c0.02,0.05,0.03,0.1,0.04,0.16c-0.07-0.53-0.14-1.06-0.21-1.6c0.01,0.05,0.01,0.1,0,0.16c0.07-0.53,0.14-1.06,0.21-1.6
					c-0.01,0.04-0.02,0.07-0.03,0.11c0.2-0.48,0.4-0.96,0.6-1.43c-0.02,0.04-0.03,0.07-0.06,0.1c0.31-0.4,0.63-0.81,0.94-1.21
					c-0.03,0.03-0.05,0.06-0.09,0.08c0.4-0.31,0.81-0.63,1.21-0.94c-0.02,0.02-0.05,0.03-0.07,0.04c-0.7,0.38-1.26,0.89-1.68,1.55
					c-0.53,0.58-0.89,1.26-1.07,2.04c-0.25,0.8-0.29,1.6-0.11,2.39c0.04,0.8,0.27,1.54,0.71,2.23c0.31,0.4,0.63,0.81,0.94,1.21
					c0.75,0.74,1.63,1.26,2.65,1.54c0.53,0.07,1.06,0.14,1.6,0.21C1152.04,290.51,1153.05,290.24,1153.99,289.7L1153.99,289.7z"/>
			</g>
		</g>
		<g class="st5">
			<path d="M1135.96,293.65"/>
			<g>
				<path class="st0" d="M1135.96,299.65c7.72,0,7.73-12,0-12C1128.24,287.65,1128.23,299.65,1135.96,299.65L1135.96,299.65z"/>
			</g>
		</g>
		<g class="st5">
			<path d="M1120.47,301.63"/>
			<g>
				<path class="st0" d="M1120.47,307.63c7.72,0,7.73-12,0-12C1112.75,295.63,1112.73,307.63,1120.47,307.63L1120.47,307.63z"/>
			</g>
		</g>
		<g class="st5">
			<path d="M1106.03,311.33c-0.16,0-0.32,0-0.47,0"/>
			<g>
				<path class="st0" d="M1106.03,305.33c-0.16,0-0.32,0-0.47,0c-0.83-0.03-1.6,0.14-2.31,0.52c-0.74,0.24-1.39,0.66-1.93,1.24
					c-0.59,0.54-1,1.19-1.24,1.93c-0.38,0.72-0.55,1.49-0.52,2.31c0.07,0.53,0.14,1.06,0.21,1.6c0.29,1.02,0.8,1.9,1.54,2.65
					c0.4,0.31,0.81,0.63,1.21,0.94c0.94,0.54,1.95,0.82,3.03,0.82c0.16,0,0.32,0,0.47,0c0.83,0.03,1.6-0.14,2.31-0.52
					c0.74-0.24,1.39-0.66,1.93-1.24c0.59-0.54,1-1.19,1.24-1.93c0.38-0.72,0.55-1.49,0.52-2.31c-0.07-0.53-0.14-1.06-0.21-1.6
					c-0.29-1.02-0.8-1.9-1.54-2.65c-0.4-0.31-0.81-0.63-1.21-0.94C1108.13,305.6,1107.12,305.33,1106.03,305.33L1106.03,305.33z"/>
			</g>
		</g>
		<g class="st5">
			<path d="M1091.32,319.52"/>
			<g>
				<path class="st0" d="M1091.32,325.52c7.72,0,7.73-12,0-12C1083.6,313.52,1083.58,325.52,1091.32,325.52L1091.32,325.52z"/>
			</g>
		</g>
		<g class="st5">
			<path d="M1076.13,325.99c0.38,0.08-0.39,1.53-0.56,1.85"/>
			<g>
				<path class="st0" d="M1074.53,331.77c0.01,0,0.02,0.01,0.03,0.01c-0.48-0.2-0.96-0.4-1.43-0.6c0.01,0.01,0.02,0.01,0.03,0.02
					c-0.4-0.31-0.81-0.63-1.21-0.94c0.01,0.01,0.01,0.02,0.02,0.02c-0.31-0.4-0.63-0.81-0.94-1.21c0,0.01,0.01,0.02,0.01,0.03
					c-0.2-0.48-0.4-0.96-0.6-1.43c0,0.01,0.01,0.02,0.01,0.04c-0.07-0.53-0.14-1.06-0.21-1.6c0.01,0.05,0.01,0.09,0,0.14
					c0.07-0.53,0.14-1.06,0.21-1.6c-0.03,0.23-0.12,0.44-0.2,0.66c0.2-0.48,0.4-0.96,0.6-1.43c-0.14,0.32-0.29,0.63-0.46,0.94
					c-0.76,1.39-1.03,3.07-0.6,4.62c0.19,0.78,0.54,1.46,1.07,2.04c0.42,0.65,0.98,1.17,1.68,1.55c1.39,0.74,3.08,1.1,4.62,0.6
					c1.46-0.47,2.83-1.37,3.59-2.76c0.46-0.84,0.85-1.73,1.16-2.62c0.24-0.66,0.35-1.44,0.32-2.11c-0.01-0.25-0.16-1.41-0.23-1.65
					c-0.2-0.48-0.4-0.96-0.6-1.43c-0.11-0.24-0.28-0.45-0.48-0.64c-0.16-0.22-0.32-0.43-0.49-0.63c-0.4-0.31-0.81-0.63-1.21-0.94
					c-0.45-0.29-0.98-0.45-1.49-0.63c-0.8-0.25-1.59-0.29-2.39-0.11c-0.8,0.04-1.54,0.27-2.23,0.71c-0.7,0.38-1.26,0.89-1.68,1.55
					c-0.53,0.58-0.89,1.26-1.07,2.04c-0.35,1.54-0.27,3.26,0.6,4.62c0.31,0.4,0.63,0.81,0.94,1.21
					C1072.63,330.97,1073.52,331.49,1074.53,331.77L1074.53,331.77z"/>
			</g>
		</g>
		<g class="st5">
			<path d="M1061.06,334.32"/>
			<g>
				<path class="st0" d="M1061.06,340.32c7.72,0,7.73-12,0-12C1053.33,328.32,1053.32,340.32,1061.06,340.32L1061.06,340.32z"/>
			</g>
		</g>
		<g>
			<g>
				<path class="st6" d="M739.58,651.5"/>
				<g>
					<g>
						<path class="st0" d="M899.51,644.06c11.23,1.15,22.46,2.29,33.68,3.44c0,0,238.27,30.27,241.39-275.37l-114.89,55.32
							c-1.52,107.32-153.85,123.32-153.85,123.32c-24.23,0.75-47.31,4.32-47.31,4.32l-9.75,1.38c-12.19,1.45-25.13,1.45-37.2,7.45
							c-23.29,12-48.3,5-73.31,4c-6.04,0-12.07,3-17.25,6c-4.23,2.26-52.02,33.54-69,31c-1.13,2.18-1.56,4.26-1.46,6.2
							c0.42,8.67,11.96,13.2,13.54,13.8c4.59,1.74,8.14,1.53,13.9,1.17c17.05-1.04,30.83-8.77,32.74-10.01
							c3.63-2.36-3.61,3.71-3.61,3.71c1.18,2.04,2.68,3.36,4.52,4.52c1.49,0.94,3.09,1.6,4.74,2.08"/>
						<g>
							<path class="st1" d="M899.51,645.56c12.37,1.26,24.74,2.8,37.13,3.76c5.12,0.4,10.26,0.53,15.39,0.49
								c8.32-0.06,16.65-0.58,24.92-1.52c10.67-1.22,21.26-3.12,31.66-5.76c12.15-3.09,24.03-7.19,35.47-12.32
								c12.73-5.7,24.87-12.71,36.12-20.96c12.58-9.22,24.02-19.93,34.07-31.86c11.53-13.7,21.23-28.88,29.13-44.94
								c9.46-19.25,16.42-39.67,21.4-60.51c6.09-25.47,9.32-51.59,10.63-77.73c0.37-7.36,0.58-14.73,0.66-22.1
								c0.01-1.21-1.27-1.77-2.26-1.3c-12.95,6.24-25.91,12.47-38.86,18.71c-20.63,9.93-41.26,19.87-61.89,29.8
								c-4.71,2.27-9.43,4.54-14.14,6.81c-0.47,0.23-0.73,0.8-0.74,1.3c-0.28,16.63-4.38,32.96-12.71,47.4
								c-7.56,13.12-18.18,24.27-30.22,33.39c-22.08,16.73-48.5,27.3-75.14,34.27c-8.81,2.31-17.73,4.23-26.72,5.68
								c-8.18,1.32-16.63,1.38-25.42,2.08c-15.86,1.26-31.51,4.02-47.33,5.52c-6.89,0.65-13.83,1.36-20.52,3.25
								c-6.78,1.93-12.79,5.67-19.56,7.63c-13.87,4.02-28.5,2.7-42.66,1.32c-3.43-0.33-6.86-0.68-10.29-0.97
								c-3.67-0.31-7.51-0.85-11.19-0.52c-5.89,0.53-11.33,3.3-16.37,6.21c-4.34,2.51-8.56,5.22-12.87,7.77
								c-7.41,4.4-14.92,8.64-22.61,12.51c-7.6,3.83-15.49,7.57-23.78,9.61c-2.69,0.66-5.62,1.24-8.4,0.86
								c-0.62-0.08-1.38,0.04-1.69,0.69c-4.94,10.27,3.09,18.18,12.14,21.87c5.71,2.33,11.91,1.96,17.94,1.32
								c6.95-0.73,13.77-2.46,20.27-5c2.54-0.99,5.05-2.09,7.48-3.34c0.71-0.37,1.42-0.74,2.11-1.14c0.24-0.14,0.49-0.27,0.71-0.43
								c0.3-0.22,1.09-0.44,0.37-0.41c-0.48-0.37-0.96-0.73-1.45-1.1c-0.2-1.33,0.48-1.41-0.52-0.45c-0.52,0.5-1.07,0.97-1.61,1.44
								c-0.69,0.61-1.39,1.2-2.1,1.8c-0.49,0.41-0.56,1.29-0.23,1.82c2.34,3.76,5.99,6,10.16,7.29c1.85,0.57,2.64-2.32,0.8-2.89
								c-3.42-1.06-6.44-2.82-8.37-5.91c-0.08,0.61-0.16,1.21-0.23,1.82c1.47-1.24,5.33-3.49,5.01-5.71
								c-0.09-0.62-0.85-1.13-1.45-1.1c-1.17,0.05-2.35,1.12-3.36,1.68c-2.22,1.22-4.52,2.29-6.86,3.25
								c-7.64,3.14-15.73,5.13-23.98,5.64c-6.05,0.38-11.44,0.04-16.79-2.92c-6.06-3.34-10.85-8.88-7.42-16.03
								c-0.56,0.23-1.13,0.46-1.69,0.69c6.82,0.93,13.97-1.77,20.2-4.25c8.42-3.36,16.52-7.51,24.46-11.89
								c6.73-3.71,13.34-7.63,19.89-11.63c6.73-4.11,13.96-9.16,22.1-9.18c7.16-0.01,14.41,1.08,21.53,1.76
								c7.07,0.68,14.17,1.28,21.29,1.17c6.84-0.1,13.72-0.87,20.3-2.78c7.07-2.04,13.35-5.98,20.46-7.88
								c10.71-2.87,22.01-3.02,32.96-4.57c5.97-0.84,11.93-1.69,17.92-2.37c11.08-1.25,22.18-1.58,33.27-2.5
								c1.59-0.13,3.18-0.4,4.76-0.63c8-1.16,15.93-2.74,23.79-4.62c26.48-6.31,52.77-16.04,75.44-31.32
								c12.49-8.42,23.83-18.63,32.65-30.9c9.37-13.04,15.41-28.22,17.57-44.13c0.6-4.38,0.91-8.78,0.99-13.2
								c-0.25,0.43-0.5,0.86-0.74,1.3c12.95-6.24,25.91-12.47,38.86-18.71c20.63-9.93,41.26-19.87,61.89-29.8
								c4.71-2.27,9.43-4.54,14.14-6.81c-0.75-0.43-1.5-0.86-2.26-1.3c-0.3,27.55-2.46,55.14-7.59,82.24
								c-4.15,21.89-10.21,43.5-18.94,64.01c-7.22,16.98-16.28,33.21-27.34,48c-9.54,12.75-20.62,24.36-32.95,34.43
								c-10.96,8.95-22.96,16.64-35.6,22.98c-11.33,5.68-23.18,10.27-35.35,13.81c-10.59,3.08-21.4,5.38-32.32,6.93
								c-8.69,1.23-17.45,1.96-26.22,2.21c-5.86,0.16-11.73,0.11-17.58-0.24c-4.05-0.24-8.08-0.72-12.12-1.13
								c-9.19-0.94-18.37-1.87-27.56-2.81C897.59,642.36,897.6,645.36,899.51,645.56L899.51,645.56z"/>
						</g>
					</g>
					<g>
						<path class="st0" d="M899.51,644.06l-45.04-4.2l-2.79,0.15c-4.05,0.44-5.35-0.64-8.72,0.67c-3.41,1.33-6.86,2.36-9.34,5.39
							c-6.98,8.53-14.55,16.41-22.62,23.53c-8.57,7.56-18.78,14.57-29.44,12.8c-1.62-0.27-3.38-0.72-4.82,0.19
							c-1.01,0.64-1.65,1.82-2.27,2.95c-6.78,12.39-15.42,23.4-25.42,32.39c-7.06,6.34-15.34,11.87-24.26,11.65
							c-1.88-0.05-3.92-0.45-5.19-2.06c-2.51-3.2-0.3-8.25,2.02-11.65c8.13-11.9,17.36-22.78,27.49-32.39
							c-15.27,17.19-32.04,32.59-49.97,45.9c-4.23,3.14-10.72,5.7-13.49,0.84c-2.34-4.1,0.56-9.4,3.32-13.13
							c9.69-13.06,19.37-26.12,29.06-39.18c-4.36-1.56-8.7,2.12-12.19,5.53c-14.68,14.35-29.78,28.13-45.26,41.31
							c-3.01,2.56-6.51,5.24-10.18,4.43c-4.9-1.09-7.28-8.2-6.03-13.8c1.25-5.6,4.98-9.93,8.55-13.97
							c9.29-10.49,18.58-20.99,27.87-31.48c4.84-5.47,9.7-10.96,13.76-17.23c-1.92-1.8-4.75-0.24-6.75,1.43
							c-15.24,12.69-26.83,30.62-42.29,42.93c-3.57,2.84-8.41,5.36-11.98,2.53c-2.73-2.16-3.35-6.73-2.32-10.38
							c1.03-3.64,3.34-6.58,5.59-9.39c15.26-19.09,29.95-33.31,45.21-52.41c0,0,24.76-8.24,29.27-13.92c0,0,21.22,31.5,55.03,6.48"
							/>
						<g>
							<path class="st1" d="M899.51,642.56c-9.4-0.88-18.8-1.75-28.21-2.63c-4.99-0.47-9.98-0.93-14.97-1.4
								c-0.94-0.09-1.81-0.18-2.74-0.13c-1.74,0.09-3.47,0.26-5.22,0.18c-2.38-0.11-4.34,0.09-6.59,0.95
								c-2.31,0.88-4.69,1.72-6.72,3.18c-2.34,1.69-4,4.14-5.87,6.31c-3.99,4.63-8.19,9.09-12.58,13.34
								c-4.25,4.12-8.64,8.19-13.46,11.64c-4.41,3.16-9.31,5.92-14.72,6.87c-2.77,0.48-5.37,0.18-8.11-0.2
								c-2.65-0.37-4.74,0.36-6.27,2.61c-1.64,2.42-2.91,5.14-4.45,7.62c-1.49,2.4-3.05,4.74-4.7,7.04
								c-3.34,4.66-7.02,9.08-11.01,13.21c-3.92,4.06-8.11,8-12.78,11.18c-4.45,3.03-9.55,5.52-15.02,5.72
								c-2.31,0.08-5.17-0.11-5.93-2.75c-0.67-2.33,0.58-5.01,1.7-6.99c1.41-2.49,3.19-4.8,4.88-7.1c1.79-2.45,3.64-4.87,5.55-7.24
								c3.73-4.64,7.66-9.11,11.79-13.39c1.99-2.06,4.03-4.08,6.1-6.05c-0.71-0.71-1.41-1.41-2.12-2.12
								c-12.65,14.22-26.46,27.41-41.36,39.27c-3.42,2.73-6.87,5.78-10.69,7.94c-2.3,1.3-6.31,3.04-8.49,0.63
								c-2.9-3.2-0.17-8.13,1.78-11.04c2.79-4.17,5.97-8.11,8.96-12.14c7.03-9.47,14.05-18.94,21.08-28.41
								c0.61-0.82-0.06-1.94-0.9-2.2c-5.64-1.81-10.51,2.85-14.21,6.45c-4.56,4.45-9.17,8.85-13.82,13.21
								c-9.33,8.72-18.84,17.25-28.54,25.57c-3.18,2.73-8.93,8.79-13.3,4.87c-3.22-2.89-3.57-8.2-2.4-12.09
								c1.61-5.35,5.62-9.52,9.23-13.6c4.35-4.91,8.7-9.83,13.05-14.74c4.9-5.53,9.8-11.06,14.7-16.6
								c4.52-5.12,8.96-10.34,12.71-16.07c0.33-0.51,0.25-1.41-0.23-1.82c-2.93-2.43-6.31-0.66-8.87,1.43
								c-2.96,2.42-5.73,5.08-8.41,7.8c-5.41,5.48-10.41,11.33-15.54,17.06c-5.08,5.68-10.29,11.29-16.1,16.23
								c-2.57,2.19-5.75,5.05-9.32,5.17c-3.65,0.13-5.13-3.56-5.13-6.67c0-3.63,1.88-6.83,3.98-9.67c2.51-3.37,5.25-6.58,7.96-9.79
								c5.41-6.41,11.01-12.65,16.61-18.88c5.62-6.25,11.22-12.5,16.62-18.94c1.4-1.67,2.78-3.34,4.15-5.04
								c0.24-0.29,0.93-0.88,1-1.24c-0.01,0.05,0.17-0.57-0.16-0.24c0,0,0.01,0,0.02-0.01c0.06-0.06,0.21-0.06,0.28-0.09
								c0.97-0.52,2.22-0.77,3.25-1.14c4.32-1.55,8.61-3.21,12.82-5.04c4.13-1.79,8.44-3.69,11.98-6.52
								c0.57-0.46,1.11-0.94,1.58-1.51c-0.79-0.1-1.57-0.2-2.36-0.3c2.57,3.8,6.12,7.07,9.8,9.75c7.64,5.58,16.97,8.13,26.36,6.69
								c7.66-1.18,14.73-4.88,20.92-9.42c1.54-1.13,0.04-3.74-1.51-2.59c-9.33,6.85-20.77,11.5-32.4,8.49
								c-6.9-1.79-13-5.91-17.82-11.1c-0.77-0.83-1.51-1.69-2.21-2.58c-0.2-0.25,0.21,0.28,0.03,0.04
								c-0.06-0.08-0.12-0.15-0.17-0.23c-0.08-0.1-0.15-0.21-0.23-0.31c-0.06-0.09-0.12-0.17-0.18-0.26c-0.49-0.72-1.7-1.1-2.36-0.3
								c-1.07,1.32-2.55,2.25-3.99,3.11c-2.04,1.22-4.18,2.28-6.33,3.27c-4.38,2.03-8.89,3.79-13.42,5.44
								c-1.37,0.5-2.75,0.99-4.13,1.46c-0.24,0.08-0.48,0.14-0.71,0.24c-0.63,0.27-0.93,0.7-1.35,1.23
								c-0.72,0.89-1.44,1.78-2.17,2.67c-5.48,6.69-11.21,13.17-16.98,19.6c-5.68,6.33-11.39,12.63-16.92,19.09
								c-2.92,3.41-5.8,6.87-8.6,10.39c-2.31,2.89-4.58,5.87-5.71,9.45c-1.93,6.13,0.8,15.03,8.65,13.82
								c3.7-0.57,6.79-3.03,9.58-5.35c2.94-2.45,5.72-5.08,8.4-7.8c10.93-11.08,20.18-24.04,32.33-33.87
								c1.06-0.85,3.26-2.57,4.63-1.43c-0.08-0.61-0.16-1.21-0.23-1.82c-3.51,5.39-7.67,10.28-11.91,15.1
								c-4.41,5-8.84,9.98-13.25,14.97c-4.59,5.18-9.17,10.36-13.76,15.54c-3.74,4.23-7.88,8.43-10.16,13.68
								c-1.98,4.57-2.25,9.72-0.04,14.27c2.12,4.36,6.61,6.44,11.21,4.55c2.76-1.13,5.03-3.16,7.27-5.07
								c2.54-2.17,5.06-4.35,7.57-6.54c4.9-4.29,9.76-8.63,14.57-13.02c5.46-4.99,10.86-10.04,16.2-15.16
								c2.66-2.55,5.22-5.24,7.99-7.67c2.36-2.07,5.4-4.29,8.69-3.23c-0.3-0.73-0.6-1.47-0.9-2.2
								c-6.71,9.04-13.41,18.08-20.12,27.12c-3.22,4.35-6.6,8.62-9.67,13.08c-2.33,3.39-4.65,7.96-3.24,12.16
								c1.25,3.71,4.64,5.36,8.38,4.76c4.04-0.65,7.34-3.22,10.51-5.62c8.03-6.1,15.79-12.56,23.22-19.37
								c8.54-7.82,16.65-16.09,24.35-24.74c1.28-1.44-0.71-3.46-2.12-2.12c-8.84,8.4-16.87,17.63-24.06,27.49
								c-3,4.12-7.3,9.09-6.99,14.55c0.13,2.36,1.33,4.6,3.5,5.68c2.28,1.14,5.02,1.08,7.49,0.78c11.22-1.37,20.49-9.81,28.01-17.62
								c4.05-4.2,7.78-8.71,11.2-13.44c1.74-2.41,3.4-4.89,4.97-7.41c0.75-1.21,1.48-2.43,2.19-3.66c0.75-1.31,1.39-2.74,2.26-3.97
								c1.64-2.29,4.95-0.77,7.29-0.66c2.69,0.13,5.43-0.26,8.01-1.01c5.44-1.58,10.33-4.64,14.78-8.07
								c9.76-7.5,18.47-16.6,26.36-26.01c0.91-1.08,1.75-2.25,2.8-3.19c1.04-0.93,2.29-1.61,3.55-2.19c2.13-0.97,4.61-2.17,7-2.18
								c1.97,0,3.91,0.08,5.88-0.03c0.75-0.04,1.51-0.13,2.26-0.1c3.74,0.14,7.52,0.7,11.25,1.05c10.99,1.02,21.97,2.05,32.96,3.07
								c0.24,0.02,0.48,0.04,0.72,0.07C901.43,645.74,901.41,642.74,899.51,642.56L899.51,642.56z"/>
						</g>
					</g>
				</g>
			</g>
			<path class="st6" d="M802.45,636.94"/>
		</g>
	</g>
</g>
</svg>
